CSLSans-Thin.ufo
<glyph name="quotedbl" format="2">
  <advance width="373"/>
  <unicode hex="0022"/>
  <outline>
    <contour>
      <point x="253" y="490" type="line"/>
      <point x="253" y="740" type="line"/>
      <point x="273" y="740" type="line"/>
      <point x="273" y="490" type="line"/>
    </contour>
    <contour>
      <point x="100" y="490" type="line"/>
      <point x="100" y="740" type="line"/>
      <point x="120" y="740" type="line"/>
      <point x="120" y="490" type="line"/>
    </contour>
  </outline>
</glyph>
<glyph name="comma" format="2">
  <advance width="300"/>
  <unicode hex="002C"/>
  <outline>
    <contour>
      <point x="81" y="-147" type="line"/>
      <point x="149" y="-77"/>
      <point x="155" y="-5" type="qcurve"/>
      <point x="123" y="-5"/>
      <point x="123" y="18" type="qcurve" smooth="yes"/>
      <point x="123" y="27" type="line" smooth="yes"/>
      <point x="123" y="53"/>
      <point x="151" y="53" type="qcurve" smooth="yes"/>
      <point x="177" y="53"/>
      <point x="177" y="27" type="qcurve" smooth="yes"/>
      <point x="177" y="15" type="line" smooth="yes"/>
      <point x="177" y="-27"/>
      <point x="133" y="-116"/>
      <point x="100" y="-147" type="qcurve"/>
    </contour>
  </outline>
</glyph>
<glyph name="zero" format="2">
  <advance width="600"/>
  <unicode hex="0030"/>
  <outline>
    <contour>
      <point x="300" y="8" type="qcurve" smooth="yes"/>
      <point x="400" y="8"/>
      <point x="505" y="162"/>
      <point x="505" y="317" type="qcurve" smooth="yes"/>
      <point x="505" y="381" type="line" smooth="yes"/>
      <point x="505" y="536"/>
      <point x="400" y="690"/>
      <point x="300" y="690" type="qcurve" smooth="yes"/>
      <point x="200" y="690"/>
      <point x="95" y="536"/>
      <point x="95" y="381" type="qcurve" smooth="yes"/>
      <point x="95" y="317" type="line" smooth="yes"/>
      <point x="95" y="162"/>
      <point x="200" y="8"/>
    </contour>
    <contour>
      <point x="300" y="-12" type="qcurve" smooth="yes"/>
      <point x="191" y="-12"/>
      <point x="71" y="157"/>
      <point x="71" y="349" type="qcurve" smooth="yes"/>
      <point x="71" y="541"/>
      <point x="191" y="710"/>
      <point x="300" y="710" type="qcurve" smooth="yes"/>
      <point x="410" y="710"/>
      <point x="529" y="541"/>
      <point x="529" y="349" type="qcurve" smooth="yes"/>
      <point x="529" y="157"/>
      <point x="410" y="-12"/>
    </contour>
  </outline>
</glyph>
<glyph name="two" format="2">
  <advance width="600"/>
  <unicode hex="0032"/>
  <outline>
    <contour>
      <point x="87" y="0" type="line"/>
      <point x="87" y="22" type="line"/>
      <point x="356" y="294" type="line" smooth="yes"/>
      <point x="407" y="345"/>
      <point x="462" y="446"/>
      <point x="462" y="502" type="qcurve" smooth="yes"/>
      <point x="462" y="532" type="line" smooth="yes"/>
      <point x="462" y="600"/>
      <point x="378" y="690"/>
      <point x="294" y="690" type="qcurve" smooth="yes"/>
      <point x="149" y="690"/>
      <point x="107" y="551" type="qcurve"/>
      <point x="87" y="555" type="line"/>
      <point x="106" y="624"/>
      <point x="208" y="710"/>
      <point x="294" y="710" type="qcurve" smooth="yes"/>
      <point x="388" y="710"/>
      <point x="486" y="607"/>
      <point x="486" y="516" type="qcurve" smooth="yes"/>
      <point x="486" y="449"/>
      <point x="427" y="335"/>
      <point x="370" y="279" type="qcurve" smooth="yes"/>
      <point x="112" y="20" type="line"/>
      <point x="521" y="20" type="line"/>
      <point x="521" y="0" type="line"/>
    </contour>
  </outline>
</glyph>
<glyph name="braceleft" format="2">
  <advance width="315"/>
  <unicode hex="007B"/>
  <outline>
    <contour>
      <point x="147" y="-138" type="line"/>
      <point x="122" y="-137"/>
      <point x="122" y="-112" type="qcurve" smooth="yes"/>
      <point x="122" y="201" type="line" smooth="yes"/>
      <point x="122" y="287"/>
      <point x="25" y="287" type="qcurve"/>
      <point x="25" y="335" type="line"/>
      <point x="122" y="335"/>
      <point x="122" y="421" type="qcurve" smooth="yes"/>
      <point x="122" y="734" type="line" smooth="yes"/>
      <point x="122" y="760"/>
      <point x="147" y="760" type="qcurve" smooth="yes"/>
      <point x="247" y="760" type="line"/>
      <point x="247" y="742" type="line"/>
      <point x="142" y="742" type="line"/>
      <point x="142" y="421" type="line" smooth="yes"/>
      <point x="142" y="374"/>
      <point x="88" y="319"/>
      <point x="43" y="319" type="qcurve"/>
      <point x="43" y="303" type="line"/>
      <point x="88" y="303"/>
      <point x="142" y="248"/>
      <point x="142" y="201" type="qcurve" smooth="yes"/>
      <point x="142" y="-120" type="line"/>
      <point x="247" y="-120" type="line"/>
      <point x="247" y="-138" type="line"/>
    </contour>
  </outline>
</glyph>
<glyph name="cent" format="2">
  <advance width="497"/>
  <unicode hex="00A2"/>
  <outline>
    <contour>
      <point x="253" y="498" type="line"/>
      <point x="171" y="492"/>
      <point x="83" y="374"/>
      <point x="83" y="277" type="qcurve" smooth="yes"/>
      <point x="83" y="229" type="line" smooth="yes"/>
      <point x="83" y="132"/>
      <point x="171" y="14"/>
      <point x="253" y="8" type="qcurve"/>
    </contour>
    <contour>
      <point x="253" y="-114" type="line"/>
      <point x="253" y="-11" type="line"/>
      <point x="160" y="-6"/>
      <point x="60" y="127"/>
      <point x="60" y="253" type="qcurve" smooth="yes"/>
      <point x="60" y="379"/>
      <point x="160" y="512"/>
      <point x="253" y="517" type="qcurve"/>
      <point x="253" y="620" type="line"/>
      <point x="273" y="620" type="line"/>
      <point x="273" y="518" type="line"/>
      <point x="390" y="512"/>
      <point x="435" y="418" type="qcurve"/>
      <point x="417" y="409" type="line"/>
      <point x="393" y="453"/>
      <point x="325" y="499"/>
      <point x="273" y="499" type="qcurve"/>
      <point x="273" y="7" type="line"/>
      <point x="384" y="11"/>
      <point x="428" y="95" type="qcurve"/>
      <point x="444" y="84" type="line"/>
      <point x="390" y="-12"/>
      <point x="273" y="-12" type="qcurve"/>
      <point x="273" y="-114" type="line"/>
    </contour>
  </outline>
</glyph>
<glyph name="dieresis" format="2">
  <advance width="600"/>
  <unicode hex="00A8"/>
  <outline>
    <contour>
      <point x="391" y="642" type="qcurve" smooth="yes"/>
      <point x="368" y="642"/>
      <point x="368" y="663" type="qcurve" smooth="yes"/>
      <point x="368" y="670" type="line" smooth="yes"/>
      <point x="368" y="691"/>
      <point x="391" y="691" type="qcurve" smooth="yes"/>
      <point x="414" y="691"/>
      <point x="414" y="670" type="qcurve" smooth="yes"/>
      <point x="414" y="663" type="line" smooth="yes"/>
      <point x="414" y="642"/>
    </contour>
    <contour>
      <point x="209" y="642" type="qcurve" smooth="yes"/>
      <point x="186" y="642"/>
      <point x="186" y="663" type="qcurve" smooth="yes"/>
      <point x="186" y="670" type="line" smooth="yes"/>
      <point x="186" y="691"/>
      <point x="209" y="691" type="qcurve" smooth="yes"/>
      <point x="232" y="691"/>
      <point x="232" y="670" type="qcurve" smooth="yes"/>
      <point x="232" y="663" type="line" smooth="yes"/>
      <point x="232" y="642"/>
    </contour>
  </outline>
</glyph>
<glyph name="copyright" format="2">
  <advance width="708"/>
  <unicode hex="00A9"/>
  <outline>
    <contour>
      <point x="351" y="149" type="qcurve" smooth="yes"/>
      <point x="283" y="149"/>
      <point x="202" y="249"/>
      <point x="202" y="346" type="qcurve" smooth="yes"/>
      <point x="202" y="443"/>
      <point x="284" y="543"/>
      <point x="353" y="543" type="qcurve" smooth="yes"/>
      <point x="402" y="543"/>
      <point x="464" y="498"/>
      <point x="476" y="462" type="qcurve"/>
      <point x="460" y="457" type="line"/>
      <point x="433" y="526"/>
      <point x="353" y="526" type="qcurve" smooth="yes"/>
      <point x="293" y="526"/>
      <point x="222" y="441"/>
      <point x="222" y="356" type="qcurve" smooth="yes"/>
      <point x="222" y="336" type="line" smooth="yes"/>
      <point x="222" y="248"/>
      <point x="293" y="166"/>
      <point x="352" y="166" type="qcurve" smooth="yes"/>
      <point x="434" y="166"/>
      <point x="465" y="236" type="qcurve"/>
      <point x="480" y="229" type="line"/>
      <point x="465" y="194"/>
      <point x="399" y="149"/>
    </contour>
    <contour>
      <point x="354" y="6" type="qcurve" smooth="yes"/>
      <point x="421" y="6"/>
      <point x="531" y="55"/>
      <point x="571" y="98" type="qcurve" smooth="yes"/>
      <point x="653" y="189"/>
      <point x="653" y="327" type="qcurve" smooth="yes"/>
      <point x="653" y="371" type="line" smooth="yes"/>
      <point x="653" y="509"/>
      <point x="571" y="600" type="qcurve" smooth="yes"/>
      <point x="531" y="643"/>
      <point x="421" y="692"/>
      <point x="354" y="692" type="qcurve" smooth="yes"/>
      <point x="220" y="692"/>
      <point x="55" y="509"/>
      <point x="55" y="371" type="qcurve" smooth="yes"/>
      <point x="55" y="327" type="line" smooth="yes"/>
      <point x="55" y="189"/>
      <point x="138" y="98" type="qcurve" smooth="yes"/>
      <point x="177" y="55"/>
      <point x="287" y="6"/>
    </contour>
    <contour>
      <point x="354" y="-12" type="qcurve" smooth="yes"/>
      <point x="212" y="-12"/>
      <point x="33" y="186"/>
      <point x="33" y="349" type="qcurve" smooth="yes"/>
      <point x="33" y="513"/>
      <point x="212" y="710"/>
      <point x="354" y="710" type="qcurve" smooth="yes"/>
      <point x="497" y="710"/>
      <point x="675" y="513"/>
      <point x="675" y="349" type="qcurve" smooth="yes"/>
      <point x="675" y="186"/>
      <point x="497" y="-12"/>
    </contour>
  </outline>
</glyph>
<glyph name="ordfeminine" format="2">
  <advance width="333"/>
  <unicode hex="00AA"/>
  <outline>
    <contour>
      <point x="149" y="384" type="qcurve" smooth="yes"/>
      <point x="196" y="384"/>
      <point x="263" y="426"/>
      <point x="263" y="468" type="qcurve" smooth="yes"/>
      <point x="263" y="531" type="line"/>
      <point x="166" y="531" type="line" smooth="yes"/>
      <point x="108" y="531"/>
      <point x="61" y="494"/>
      <point x="61" y="462" type="qcurve" smooth="yes"/>
      <point x="61" y="449" type="line" smooth="yes"/>
      <point x="61" y="417"/>
      <point x="109" y="384"/>
    </contour>
    <contour>
      <point x="149" y="367" type="qcurve" smooth="yes"/>
      <point x="95" y="367"/>
      <point x="40" y="415"/>
      <point x="40" y="455" type="qcurve" smooth="yes"/>
      <point x="40" y="497"/>
      <point x="96" y="548"/>
      <point x="167" y="548" type="qcurve" smooth="yes"/>
      <point x="263" y="548" type="line"/>
      <point x="263" y="604" type="line" smooth="yes"/>
      <point x="263" y="693"/>
      <point x="166" y="693" type="qcurve" smooth="yes"/>
      <point x="164" y="693" type="line" smooth="yes"/>
      <point x="93" y="693"/>
      <point x="65" y="635" type="qcurve"/>
      <point x="50" y="643" type="line"/>
      <point x="80" y="710"/>
      <point x="164" y="710" type="qcurve" smooth="yes"/>
      <point x="277" y="710"/>
      <point x="282" y="607" type="qcurve"/>
      <point x="282" y="374" type="line"/>
      <point x="263" y="374" type="line"/>
      <point x="263" y="422" type="line"/>
      <point x="261" y="422" type="line"/>
      <point x="234" y="367"/>
    </contour>
  </outline>
</glyph>
<glyph name="guillemotright" format="2">
  <advance width="472"/>
  <unicode hex="00BB"/>
  <outline>
    <contour>
      <point x="231" y="121" type="line"/>
      <point x="415" y="294" type="line"/>
      <point x="231" y="467" type="line"/>
      <point x="240" y="482" type="line"/>
      <point x="438" y="304" type="line"/>
      <point x="438" y="284" type="line"/>
      <point x="240" y="106" type="line"/>
    </contour>
    <contour>
      <point x="51" y="121" type="line"/>
      <point x="235" y="294" type="line"/>
      <point x="51" y="467" type="line"/>
      <point x="60" y="482" type="line"/>
      <point x="258" y="304" type="line"/>
      <point x="258" y="284" type="line"/>
      <point x="60" y="106" type="line"/>
    </contour>
  </outline>
</glyph>
<glyph name="Agrave" format="2">
  <advance width="600"/>
  <unicode hex="00C0"/>
  <outline>
    <contour>
      <point x="301" y="675" type="line"/>
      <point x="298" y="675" type="line"/>
      <point x="147" y="253" type="line"/>
      <point x="453" y="253" type="line"/>
    </contour>
    <contour>
      <point x="545" y="0" type="line"/>
      <point x="460" y="234" type="line"/>
      <point x="140" y="234" type="line"/>
      <point x="55" y="0" type="line"/>
      <point x="32" y="0" type="line"/>
      <point x="285" y="698" type="line"/>
      <point x="315" y="698" type="line"/>
      <point x="568" y="0" type="line"/>
    </contour>
    <contour>
      <point x="202" y="919" type="line"/>
      <point x="221" y="931" type="line"/>
      <point x="332" y="777" type="line"/>
      <point x="317" y="767" type="line"/>
    </contour>
  </outline>
</glyph>
<glyph name="Atilde" format="2">
  <advance width="600"/>
  <unicode hex="00C3"/>
  <outline>
    <contour>
      <point x="301" y="675" type="line"/>
      <point x="298" y="675" type="line"/>
      <point x="147" y="253" type="line"/>
      <point x="453" y="253" type="line"/>
    </contour>
    <contour>
      <point x="545" y="0" type="line"/>
      <point x="460" y="234" type="line"/>
      <point x="140" y="234" type="line"/>
      <point x="55" y="0" type="line"/>
      <point x="32" y="0" type="line"/>
      <point x="285" y="698" type="line"/>
      <point x="315" y="698" type="line"/>
      <point x="568" y="0" type="line"/>
    </contour>
    <contour>
      <point x="371" y="808" type="qcurve" smooth="yes"/>
      <point x="354" y="808"/>
      <point x="320" y="821"/>
      <point x="294" y="838" type="qcurve"/>
      <point x="257" y="864"/>
      <point x="228" y="864" type="qcurve" smooth="yes"/>
      <point x="194" y="864"/>
      <point x="163" y="831" type="qcurve"/>
      <point x="151" y="843" type="line"/>
      <point x="186" y="882"/>
      <point x="229" y="882" type="qcurve" smooth="yes"/>
      <point x="246" y="882"/>
      <point x="280" y="869"/>
      <point x="306" y="852" type="qcurve" smooth="yes"/>
      <point x="344" y="826"/>
      <point x="372" y="826" type="qcurve" smooth="yes"/>
      <point x="408" y="826"/>
      <point x="437" y="859" type="qcurve"/>
      <point x="449" y="847" type="line"/>
      <point x="415" y="808"/>
    </contour>
  </outline>
</glyph>
<glyph name="Otilde" format="2">
  <advance width="680"/>
  <unicode hex="00D5"/>
  <outline>
    <contour>
      <point x="340" y="8" type="qcurve" smooth="yes"/>
      <point x="455" y="8"/>
      <point x="586" y="169"/>
      <point x="586" y="328" type="qcurve" smooth="yes"/>
      <point x="586" y="370" type="line" smooth="yes"/>
      <point x="586" y="529"/>
      <point x="455" y="690"/>
      <point x="340" y="690" type="qcurve" smooth="yes"/>
      <point x="225" y="690"/>
      <point x="94" y="529"/>
      <point x="94" y="370" type="qcurve" smooth="yes"/>
      <point x="94" y="328" type="line" smooth="yes"/>
      <point x="94" y="169"/>
      <point x="225" y="8"/>
    </contour>
    <contour>
      <point x="340" y="-12" type="qcurve" smooth="yes"/>
      <point x="209" y="-12"/>
      <point x="70" y="168"/>
      <point x="70" y="349" type="qcurve" smooth="yes"/>
      <point x="70" y="530"/>
      <point x="209" y="710"/>
      <point x="340" y="710" type="qcurve" smooth="yes"/>
      <point x="471" y="710"/>
      <point x="610" y="530"/>
      <point x="610" y="349" type="qcurve" smooth="yes"/>
      <point x="610" y="168"/>
      <point x="471" y="-12"/>
    </contour>
    <contour>
      <point x="411" y="808" type="qcurve" smooth="yes"/>
      <point x="394" y="808"/>
      <point x="360" y="821"/>
      <point x="334" y="838" type="qcurve"/>
      <point x="297" y="864"/>
      <point x="268" y="864" type="qcurve" smooth="yes"/>
      <point x="234" y="864"/>
      <point x="203" y="831" type="qcurve"/>
      <point x="191" y="843" type="line"/>
      <point x="226" y="882"/>
      <point x="269" y="882" type="qcurve" smooth="yes"/>
      <point x="286" y="882"/>
      <point x="320" y="869"/>
      <point x="346" y="852" type="qcurve" smooth="yes"/>
      <point x="384" y="826"/>
      <point x="412" y="826" type="qcurve" smooth="yes"/>
      <point x="448" y="826"/>
      <point x="477" y="859" type="qcurve"/>
      <point x="489" y="847" type="line"/>
      <point x="455" y="808"/>
    </contour>
  </outline>
</glyph>
<glyph name="Udieresis" format="2">
  <advance width="652"/>
  <unicode hex="00DC"/>
  <outline>
    <contour>
      <point x="326" y="-12" type="qcurve" smooth="yes"/>
      <point x="200" y="-12"/>
      <point x="100" y="114"/>
      <point x="100" y="270" type="qcurve" smooth="yes"/>
      <point x="100" y="698" type="line"/>
      <point x="122" y="698" type="line"/>
      <point x="122" y="268" type="line" smooth="yes"/>
      <point x="122" y="126"/>
      <point x="166" y="67" type="qcurve"/>
      <point x="208" y="8"/>
      <point x="326" y="8" type="qcurve" smooth="yes"/>
      <point x="442" y="8"/>
      <point x="530" y="126"/>
      <point x="530" y="268" type="qcurve" smooth="yes"/>
      <point x="530" y="698" type="line"/>
      <point x="552" y="698" type="line"/>
      <point x="552" y="270" type="line" smooth="yes"/>
      <point x="552" y="114"/>
      <point x="452" y="-12"/>
    </contour>
    <contour>
      <point x="234" y="819" type="qcurve" smooth="yes"/>
      <point x="211" y="819"/>
      <point x="211" y="840" type="qcurve" smooth="yes"/>
      <point x="211" y="847" type="line" smooth="yes"/>
      <point x="211" y="868"/>
      <point x="234" y="868" type="qcurve" smooth="yes"/>
      <point x="257" y="868"/>
      <point x="257" y="847" type="qcurve" smooth="yes"/>
      <point x="257" y="840" type="line" smooth="yes"/>
      <point x="257" y="819"/>
    </contour>
    <contour>
      <point x="416" y="819" type="qcurve" smooth="yes"/>
      <point x="393" y="819"/>
      <point x="393" y="840" type="qcurve" smooth="yes"/>
      <point x="393" y="847" type="line" smooth="yes"/>
      <point x="393" y="868"/>
      <point x="416" y="868" type="qcurve" smooth="yes"/>
      <point x="439" y="868"/>
      <point x="439" y="847" type="qcurve" smooth="yes"/>
      <point x="439" y="840" type="line" smooth="yes"/>
      <point x="439" y="819"/>
    </contour>
  </outline>
</glyph>
<glyph name="germandbls" format="2">
  <advance width="645"/>
  <unicode hex="00DF"/>
  <outline>
    <contour>
      <point x="434" y="-12" type="qcurve" smooth="yes"/>
      <point x="371" y="-12"/>
      <point x="277" y="31"/>
      <point x="242" y="81" type="qcurve"/>
      <point x="260" y="93" type="line"/>
      <point x="295" y="46"/>
      <point x="376" y="7"/>
      <point x="434" y="7" type="qcurve"/>
      <point x="575" y="10"/>
      <point x="575" y="124" type="qcurve" smooth="yes"/>
      <point x="575" y="179"/>
      <point x="520" y="229"/>
      <point x="467" y="241" type="qcurve" smooth="yes"/>
      <point x="423" y="252" type="line"/>
      <point x="365" y="264"/>
      <point x="333" y="292" type="qcurve"/>
      <point x="299" y="317"/>
      <point x="299" y="377" type="qcurve" smooth="yes"/>
      <point x="299" y="445"/>
      <point x="414" y="506"/>
      <point x="504" y="506" type="qcurve"/>
      <point x="504" y="521" type="line" smooth="yes"/>
      <point x="504" y="621"/>
      <point x="414" y="733"/>
      <point x="329" y="733" type="qcurve" smooth="yes"/>
      <point x="244" y="733"/>
      <point x="154" y="621"/>
      <point x="154" y="521" type="qcurve" smooth="yes"/>
      <point x="154" y="0" type="line"/>
      <point x="133" y="0" type="line"/>
      <point x="133" y="487" type="line"/>
      <point x="40" y="487" type="line"/>
      <point x="40" y="506" type="line"/>
      <point x="133" y="506" type="line"/>
      <point x="133" y="521" type="line" smooth="yes"/>
      <point x="133" y="625"/>
      <point x="235" y="752"/>
      <point x="329" y="752" type="qcurve" smooth="yes"/>
      <point x="424" y="752"/>
      <point x="525" y="625"/>
      <point x="525" y="521" type="qcurve" smooth="yes"/>
      <point x="525" y="488" type="line"/>
      <point x="507" y="488" type="line" smooth="yes"/>
      <point x="428" y="488"/>
      <point x="373" y="462" type="qcurve"/>
      <point x="320" y="434"/>
      <point x="320" y="378" type="qcurve" smooth="yes"/>
      <point x="320" y="328"/>
      <point x="373" y="284"/>
      <point x="427" y="272" type="qcurve"/>
      <point x="471" y="261" type="line"/>
      <point x="528" y="249"/>
      <point x="596" y="190"/>
      <point x="596" y="125" type="qcurve" smooth="yes"/>
      <point x="596" y="59"/>
      <point x="509" y="-12"/>
    </contour>
  </outline>
</glyph>
<glyph name="atilde" format="2">
  <advance width="509"/>
  <unicode hex="00E3"/>
  <outline>
    <contour>
      <point x="224" y="7" type="qcurve" smooth="yes"/>
      <point x="292" y="7"/>
      <point x="393" y="80"/>
      <point x="393" y="148" type="qcurve" smooth="yes"/>
      <point x="393" y="257" type="line"/>
      <point x="252" y="257" type="line" smooth="yes"/>
      <point x="163" y="257"/>
      <point x="84" y="195"/>
      <point x="84" y="145" type="qcurve" smooth="yes"/>
      <point x="84" y="115" type="line" smooth="yes"/>
      <point x="84" y="62"/>
      <point x="162" y="7"/>
    </contour>
    <contour>
      <point x="224" y="-12" type="qcurve" smooth="yes"/>
      <point x="146" y="-12"/>
      <point x="61" y="61"/>
      <point x="61" y="130" type="qcurve" smooth="yes"/>
      <point x="61" y="199"/>
      <point x="102" y="234" type="qcurve" smooth="yes"/>
      <point x="149" y="275"/>
      <point x="251" y="275" type="qcurve" smooth="yes"/>
      <point x="393" y="275" type="line"/>
      <point x="393" y="349" type="line" smooth="yes"/>
      <point x="393" y="427"/>
      <point x="320" y="499"/>
      <point x="249" y="499" type="qcurve" smooth="yes"/>
      <point x="135" y="499"/>
      <point x="96" y="404" type="qcurve"/>
      <point x="78" y="412" type="line"/>
      <point x="98" y="461"/>
      <point x="178" y="518"/>
      <point x="249" y="518" type="qcurve" smooth="yes"/>
      <point x="414" y="518"/>
      <point x="414" y="356" type="qcurve" smooth="yes"/>
      <point x="414" y="0" type="line"/>
      <point x="393" y="0" type="line"/>
      <point x="393" y="77" type="line"/>
      <point x="390" y="77" type="line"/>
      <point x="347" y="-12"/>
    </contour>
    <contour>
      <point x="321" y="628" type="qcurve" smooth="yes"/>
      <point x="304" y="628"/>
      <point x="270" y="641"/>
      <point x="244" y="658" type="qcurve"/>
      <point x="207" y="684"/>
      <point x="178" y="684" type="qcurve" smooth="yes"/>
      <point x="144" y="684"/>
      <point x="113" y="651" type="qcurve"/>
      <point x="101" y="663" type="line"/>
      <point x="136" y="702"/>
      <point x="179" y="702" type="qcurve" smooth="yes"/>
      <point x="196" y="702"/>
      <point x="230" y="689"/>
      <point x="256" y="672" type="qcurve" smooth="yes"/>
      <point x="294" y="646"/>
      <point x="322" y="646" type="qcurve" smooth="yes"/>
      <point x="358" y="646"/>
      <point x="387" y="679" type="qcurve"/>
      <point x="399" y="667" type="line"/>
      <point x="365" y="628"/>
    </contour>
  </outline>
</glyph>
<glyph name="egrave" format="2">
  <advance width="533"/>
  <unicode hex="00E8"/>
  <outline>
    <contour>
      <point x="450" y="275" type="line"/>
      <point x="450" y="380"/>
      <point x="351" y="499"/>
      <point x="268" y="499" type="qcurve" smooth="yes"/>
      <point x="179" y="499"/>
      <point x="83" y="380"/>
      <point x="83" y="275" type="qcurve"/>
    </contour>
    <contour>
      <point x="272" y="-12" type="qcurve" smooth="yes"/>
      <point x="172" y="-12"/>
      <point x="60" y="121"/>
      <point x="60" y="253" type="qcurve" smooth="yes"/>
      <point x="60" y="384"/>
      <point x="170" y="518"/>
      <point x="268" y="518" type="qcurve" smooth="yes"/>
      <point x="360" y="518"/>
      <point x="473" y="382"/>
      <point x="473" y="266" type="qcurve" smooth="yes"/>
      <point x="473" y="256" type="line"/>
      <point x="83" y="256" type="line"/>
      <point x="83" y="229" type="line" smooth="yes"/>
      <point x="83" y="126"/>
      <point x="181" y="7"/>
      <point x="272" y="7" type="qcurve" smooth="yes"/>
      <point x="400" y="7"/>
      <point x="447" y="131" type="qcurve"/>
      <point x="465" y="124" type="line"/>
      <point x="442" y="60"/>
      <point x="345" y="-12"/>
    </contour>
    <contour>
      <point x="171" y="739" type="line"/>
      <point x="190" y="751" type="line"/>
      <point x="301" y="597" type="line"/>
      <point x="286" y="587" type="line"/>
    </contour>
  </outline>
</glyph>
<glyph name="iacute" format="2">
  <advance width="231"/>
  <unicode hex="00ED"/>
  <outline>
    <contour>
      <point x="105" y="0" type="line"/>
      <point x="105" y="506" type="line"/>
      <point x="126" y="506" type="line"/>
      <point x="126" y="0" type="line"/>
    </contour>
    <contour>
      <point x="83" y="597" type="line"/>
      <point x="194" y="751" type="line"/>
      <point x="213" y="739" type="line"/>
      <point x="98" y="587" type="line"/>
    </contour>
  </outline>
</glyph>
<glyph name="idieresis" format="2">
  <advance width="231"/>
  <unicode hex="00EF"/>
  <outline>
    <contour>
      <point x="105" y="0" type="line"/>
      <point x="105" y="506" type="line"/>
      <point x="126" y="506" type="line"/>
      <point x="126" y="0" type="line"/>
    </contour>
    <contour>
      <point x="25" y="642" type="qcurve" smooth="yes"/>
      <point x="2" y="642"/>
      <point x="2" y="663" type="qcurve" smooth="yes"/>
      <point x="2" y="670" type="line" smooth="yes"/>
      <point x="2" y="691"/>
      <point x="25" y="691" type="qcurve" smooth="yes"/>
      <point x="48" y="691"/>
      <point x="48" y="670" type="qcurve" smooth="yes"/>
      <point x="48" y="663" type="line" smooth="yes"/>
      <point x="48" y="642"/>
    </contour>
    <contour>
      <point x="207" y="642" type="qcurve" smooth="yes"/>
      <point x="184" y="642"/>
      <point x="184" y="663" type="qcurve" smooth="yes"/>
      <point x="184" y="670" type="line" smooth="yes"/>
      <point x="184" y="691"/>
      <point x="207" y="691" type="qcurve" smooth="yes"/>
      <point x="230" y="691"/>
      <point x="230" y="670" type="qcurve" smooth="yes"/>
      <point x="230" y="663" type="line" smooth="yes"/>
      <point x="230" y="642"/>
    </contour>
  </outline>
</glyph>
<glyph name="ebreve" format="2">
  <advance width="533"/>
  <unicode hex="0115"/>
  <outline>
    <contour>
      <point x="450" y="275" type="line"/>
      <point x="450" y="380"/>
      <point x="351" y="499"/>
      <point x="268" y="499" type="qcurve" smooth="yes"/>
      <point x="179" y="499"/>
      <point x="83" y="380"/>
      <point x="83" y="275" type="qcurve"/>
    </contour>
    <contour>
      <point x="272" y="-12" type="qcurve" smooth="yes"/>
      <point x="172" y="-12"/>
      <point x="60" y="121"/>
      <point x="60" y="253" type="qcurve" smooth="yes"/>
      <point x="60" y="384"/>
      <point x="170" y="518"/>
      <point x="268" y="518" type="qcurve" smooth="yes"/>
      <point x="360" y="518"/>
      <point x="473" y="382"/>
      <point x="473" y="266" type="qcurve" smooth="yes"/>
      <point x="473" y="256" type="line"/>
      <point x="83" y="256" type="line"/>
      <point x="83" y="229" type="line" smooth="yes"/>
      <point x="83" y="126"/>
      <point x="181" y="7"/>
      <point x="272" y="7" type="qcurve" smooth="yes"/>
      <point x="400" y="7"/>
      <point x="447" y="131" type="qcurve"/>
      <point x="465" y="124" type="line"/>
      <point x="442" y="60"/>
      <point x="345" y="-12"/>
    </contour>
    <contour>
      <point x="269" y="606" type="qcurve" smooth="yes"/>
      <point x="217" y="606"/>
      <point x="165" y="666"/>
      <point x="141" y="715" type="qcurve" smooth="yes"/>
      <point x="137" y="723" type="line"/>
      <point x="153" y="730" type="line"/>
      <point x="168" y="703" type="line" smooth="yes"/>
      <point x="193" y="656"/>
      <point x="216" y="641" type="qcurve"/>
      <point x="235" y="625"/>
      <point x="269" y="625" type="qcurve" smooth="yes"/>
      <point x="301" y="625"/>
      <point x="345" y="656"/>
      <point x="370" y="703" type="qcurve" smooth="yes"/>
      <point x="385" y="730" type="line"/>
      <point x="401" y="723" type="line"/>
      <point x="397" y="715" type="line" smooth="yes"/>
      <point x="373" y="666"/>
      <point x="319" y="606"/>
    </contour>
  </outline>
</glyph>
<glyph name="Gdotaccent" format="2">
  <advance width="644"/>
  <unicode hex="0120"/>
  <outline>
    <contour>
      <point x="63" y="349" type="qcurve" smooth="yes"/>
      <point x="63" y="472"/>
      <point x="128" y="633"/>
      <point x="247" y="710"/>
      <point x="329" y="710" type="qcurve" smooth="yes"/>
      <point x="371" y="710"/>
      <point x="442" y="689"/>
      <point x="500" y="651"/>
      <point x="542" y="601"/>
      <point x="556" y="571" type="qcurve"/>
      <point x="536" y="562" type="line"/>
      <point x="515" y="609"/>
      <point x="449" y="665"/>
      <point x="369" y="689"/>
      <point x="329" y="689" type="qcurve" smooth="yes"/>
      <point x="259" y="689"/>
      <point x="149" y="623"/>
      <point x="88" y="482"/>
      <point x="88" y="371" type="qcurve" smooth="yes"/>
      <point x="88" y="327" type="line" smooth="yes"/>
      <point x="88" y="241"/>
      <point x="126" y="119"/>
      <point x="193" y="44"/>
      <point x="280" y="9"/>
      <point x="330" y="9" type="qcurve" smooth="yes"/>
      <point x="390" y="9"/>
      <point x="490" y="52"/>
      <point x="550" y="138"/>
      <point x="550" y="202" type="qcurve" smooth="yes"/>
      <point x="550" y="312" type="line"/>
      <point x="328" y="312" type="line"/>
      <point x="328" y="332" type="line"/>
      <point x="573" y="332" type="line"/>
      <point x="573" y="202" type="line" smooth="yes"/>
      <point x="573" y="154"/>
      <point x="539" y="74"/>
      <point x="475" y="18"/>
      <point x="386" y="-12"/>
      <point x="330" y="-12" type="qcurve" smooth="yes"/>
      <point x="280" y="-12"/>
      <point x="196" y="16"/>
      <point x="131" y="73"/>
      <point x="87" y="160"/>
      <point x="63" y="276"/>
    </contour>
    <contour>
      <point x="340" y="822" type="qcurve" smooth="yes"/>
      <point x="327" y="822"/>
      <point x="317" y="835"/>
      <point x="317" y="843" type="qcurve" smooth="yes"/>
      <point x="317" y="850" type="line" smooth="yes"/>
      <point x="317" y="858"/>
      <point x="327" y="871"/>
      <point x="340" y="871" type="qcurve" smooth="yes"/>
      <point x="353" y="871"/>
      <point x="363" y="858"/>
      <point x="363" y="850" type="qcurve" smooth="yes"/>
      <point x="363" y="843" type="line" smooth="yes"/>
      <point x="363" y="835"/>
      <point x="353" y="822"/>
    </contour>
  </outline>
</glyph>
<glyph name="Gcommaaccent" format="2">
  <advance width="644"/>
  <unicode hex="0122"/>
  <outline>
    <contour>
      <point x="341" y="-66" type="qcurve" smooth="yes"/>
      <point x="353" y="-66"/>
      <point x="363" y="-78"/>
      <point x="363" y="-88" type="qcurve" smooth="yes"/>
      <point x="363" y="-99" type="line" smooth="yes"/>
      <point x="363" y="-124"/>
      <point x="338" y="-190"/>
      <point x="318" y="-212" type="qcurve"/>
      <point x="300" y="-212" type="line"/>
      <point x="322" y="-188"/>
      <point x="343" y="-132"/>
      <point x="345" y="-116" type="qcurve"/>
      <point x="329" y="-116"/>
      <point x="317" y="-104"/>
      <point x="317" y="-96" type="qcurve" smooth="yes"/>
      <point x="317" y="-88" type="line" smooth="yes"/>
      <point x="317" y="-78"/>
      <point x="328" y="-66"/>
    </contour>
    <contour>
      <point x="63" y="349" type="qcurve" smooth="yes"/>
      <point x="63" y="472"/>
      <point x="128" y="633"/>
      <point x="247" y="710"/>
      <point x="329" y="710" type="qcurve" smooth="yes"/>
      <point x="371" y="710"/>
      <point x="442" y="689"/>
      <point x="500" y="651"/>
      <point x="542" y="601"/>
      <point x="556" y="571" type="qcurve"/>
      <point x="536" y="562" type="line"/>
      <point x="515" y="609"/>
      <point x="449" y="665"/>
      <point x="369" y="689"/>
      <point x="329" y="689" type="qcurve" smooth="yes"/>
      <point x="259" y="689"/>
      <point x="149" y="623"/>
      <point x="88" y="482"/>
      <point x="88" y="371" type="qcurve" smooth="yes"/>
      <point x="88" y="327" type="line" smooth="yes"/>
      <point x="88" y="241"/>
      <point x="126" y="119"/>
      <point x="193" y="44"/>
      <point x="280" y="9"/>
      <point x="330" y="9" type="qcurve" smooth="yes"/>
      <point x="390" y="9"/>
      <point x="490" y="52"/>
      <point x="550" y="138"/>
      <point x="550" y="202" type="qcurve" smooth="yes"/>
      <point x="550" y="312" type="line"/>
      <point x="328" y="312" type="line"/>
      <point x="328" y="332" type="line"/>
      <point x="573" y="332" type="line"/>
      <point x="573" y="202" type="line" smooth="yes"/>
      <point x="573" y="154"/>
      <point x="539" y="74"/>
      <point x="475" y="18"/>
      <point x="386" y="-12"/>
      <point x="330" y="-12" type="qcurve" smooth="yes"/>
      <point x="280" y="-12"/>
      <point x="196" y="16"/>
      <point x="131" y="73"/>
      <point x="87" y="160"/>
      <point x="63" y="276"/>
    </contour>
  </outline>
</glyph>
<glyph name="Imacron" format="2">
  <advance width="238"/>
  <unicode hex="012A"/>
  <outline>
    <contour>
      <point x="108" y="0" type="line"/>
      <point x="108" y="698" type="line"/>
      <point x="130" y="698" type="line"/>
      <point x="130" y="0" type="line"/>
    </contour>
    <contour>
      <point x="-10" y="838" type="line"/>
      <point x="-10" y="856" type="line"/>
      <point x="248" y="856" type="line"/>
      <point x="248" y="838" type="line"/>
    </contour>
  </outline>
</glyph>
<glyph name="dotlessi" format="2">
  <advance width="231"/>
  <unicode hex="0131"/>
  <outline>
    <contour>
      <point x="105" y="0" type="line"/>
      <point x="105" y="506" type="line"/>
      <point x="126" y="506" type="line"/>
      <point x="126" y="0" type="line"/>
    </contour>
  </outline>
</glyph>
<glyph name="ldot" format="2">
  <advance width="276"/>
  <unicode hex="0140"/>
  <outline>
    <contour>
      <point x="251" y="240" type="qcurve" smooth="yes"/>
      <point x="228" y="240"/>
      <point x="228" y="261" type="qcurve" smooth="yes"/>
      <point x="228" y="268" type="line" smooth="yes"/>
      <point x="228" y="289"/>
      <point x="251" y="289" type="qcurve" smooth="yes"/>
      <point x="274" y="289"/>
      <point x="274" y="268" type="qcurve" smooth="yes"/>
      <point x="274" y="261" type="line" smooth="yes"/>
      <point x="274" y="240"/>
    </contour>
    <contour>
      <point x="134" y="0" type="line"/>
      <point x="105" y="1"/>
      <point x="105" y="29" type="qcurve" smooth="yes"/>
      <point x="105" y="740" type="line"/>
      <point x="126" y="740" type="line"/>
      <point x="126" y="19" type="line"/>
      <point x="211" y="19" type="line"/>
      <point x="211" y="0" type="line"/>
    </contour>
  </outline>
</glyph>
<glyph name="Nacute" format="2">
  <advance width="692"/>
  <unicode hex="0143"/>
  <outline>
    <contour>
      <point x="552" y="0" type="line"/>
      <point x="132" y="671" type="line"/>
      <point x="129" y="671" type="line"/>
      <point x="129" y="0" type="line"/>
      <point x="108" y="0" type="line"/>
      <point x="108" y="698" type="line"/>
      <point x="140" y="698" type="line"/>
      <point x="560" y="27" type="line"/>
      <point x="563" y="27" type="line"/>
      <point x="563" y="698" type="line"/>
      <point x="584" y="698" type="line"/>
      <point x="584" y="0" type="line"/>
    </contour>
    <contour>
      <point x="313" y="777" type="line"/>
      <point x="424" y="931" type="line"/>
      <point x="443" y="919" type="line"/>
      <point x="328" y="767" type="line"/>
    </contour>
  </outline>
</glyph>
<glyph name="obreve" format="2">
  <advance width="540"/>
  <unicode hex="014F"/>
  <outline>
    <contour>
      <point x="270" y="7" type="qcurve" smooth="yes"/>
      <point x="361" y="7"/>
      <point x="457" y="126"/>
      <point x="457" y="229" type="qcurve" smooth="yes"/>
      <point x="457" y="277" type="line" smooth="yes"/>
      <point x="457" y="380"/>
      <point x="361" y="499"/>
      <point x="270" y="499" type="qcurve" smooth="yes"/>
      <point x="179" y="499"/>
      <point x="83" y="380"/>
      <point x="83" y="277" type="qcurve" smooth="yes"/>
      <point x="83" y="229" type="line" smooth="yes"/>
      <point x="83" y="126"/>
      <point x="179" y="7"/>
    </contour>
    <contour>
      <point x="270" y="-12" type="qcurve" smooth="yes"/>
      <point x="170" y="-12"/>
      <point x="60" y="121"/>
      <point x="60" y="253" type="qcurve" smooth="yes"/>
      <point x="60" y="385"/>
      <point x="170" y="518"/>
      <point x="270" y="518" type="qcurve" smooth="yes"/>
      <point x="370" y="518"/>
      <point x="480" y="385"/>
      <point x="480" y="253" type="qcurve" smooth="yes"/>
      <point x="480" y="121"/>
      <point x="370" y="-12"/>
    </contour>
    <contour>
      <point x="271" y="606" type="qcurve" smooth="yes"/>
      <point x="219" y="606"/>
      <point x="167" y="666"/>
      <point x="143" y="715" type="qcurve" smooth="yes"/>
      <point x="139" y="723" type="line"/>
      <point x="155" y="730" type="line"/>
      <point x="170" y="703" type="line" smooth="yes"/>
      <point x="195" y="656"/>
      <point x="218" y="641" type="qcurve"/>
      <point x="237" y="625"/>
      <point x="271" y="625" type="qcurve" smooth="yes"/>
      <point x="303" y="625"/>
      <point x="347" y="656"/>
      <point x="372" y="703" type="qcurve" smooth="yes"/>
      <point x="387" y="730" type="line"/>
      <point x="403" y="723" type="line"/>
      <point x="399" y="715" type="line" smooth="yes"/>
      <point x="375" y="666"/>
      <point x="321" y="606"/>
    </contour>
  </outline>
</glyph>
<glyph name="OE" format="2">
  <advance width="967"/>
  <unicode hex="0152"/>
  <outline>
    <contour>
      <point x="370" y="8" type="qcurve" smooth="yes"/>
      <point x="460" y="8"/>
      <point x="514" y="22" type="qcurve"/>
      <point x="514" y="676" type="line"/>
      <point x="460" y="690"/>
      <point x="370" y="690" type="qcurve" smooth="yes"/>
      <point x="241" y="690"/>
      <point x="94" y="528"/>
      <point x="94" y="370" type="qcurve" smooth="yes"/>
      <point x="94" y="328" type="line" smooth="yes"/>
      <point x="94" y="170"/>
      <point x="241" y="8"/>
    </contour>
    <contour>
      <point x="370" y="-12" type="qcurve" smooth="yes"/>
      <point x="224" y="-12"/>
      <point x="70" y="168"/>
      <point x="70" y="349" type="qcurve" smooth="yes"/>
      <point x="70" y="530"/>
      <point x="224" y="710"/>
      <point x="370" y="710" type="qcurve" smooth="yes"/>
      <point x="441" y="710"/>
      <point x="514" y="698" type="qcurve"/>
      <point x="895" y="698" type="line"/>
      <point x="895" y="678" type="line"/>
      <point x="536" y="678" type="line"/>
      <point x="536" y="364" type="line"/>
      <point x="883" y="364" type="line"/>
      <point x="883" y="344" type="line"/>
      <point x="536" y="344" type="line"/>
      <point x="536" y="20" type="line"/>
      <point x="895" y="20" type="line"/>
      <point x="895" y="0" type="line"/>
      <point x="514" y="0" type="line"/>
      <point x="441" y="-12"/>
    </contour>
  </outline>
</glyph>
<glyph name="racute" format="2">
  <advance width="341"/>
  <unicode hex="0155"/>
  <outline>
    <contour>
      <point x="105" y="0" type="line"/>
      <point x="105" y="506" type="line"/>
      <point x="126" y="506" type="line"/>
      <point x="126" y="419" type="line"/>
      <point x="129" y="419" type="line"/>
      <point x="169" y="506"/>
      <point x="287" y="506" type="qcurve" smooth="yes"/>
      <point x="328" y="506" type="line"/>
      <point x="328" y="487" type="line"/>
      <point x="284" y="487" type="line" smooth="yes"/>
      <point x="223" y="487"/>
      <point x="174" y="453" type="qcurve"/>
      <point x="126" y="416"/>
      <point x="126" y="349" type="qcurve" smooth="yes"/>
      <point x="126" y="0" type="line"/>
    </contour>
    <contour>
      <point x="189" y="597" type="line"/>
      <point x="300" y="751" type="line"/>
      <point x="319" y="739" type="line"/>
      <point x="204" y="587" type="line"/>
    </contour>
  </outline>
</glyph>
<glyph name="tcedilla" format="2">
  <advance width="310"/>
  <unicode hex="0163"/>
  <outline>
    <contour>
      <point x="150" y="-212" type="line"/>
      <point x="172" y="-187"/>
      <point x="193" y="-134"/>
      <point x="195" y="-116" type="qcurve"/>
      <point x="167" y="-116"/>
      <point x="167" y="-96" type="qcurve" smooth="yes"/>
      <point x="167" y="-88" type="line" smooth="yes"/>
      <point x="167" y="-66"/>
      <point x="191" y="-66" type="qcurve" smooth="yes"/>
      <point x="193" y="-66" type="line" smooth="yes"/>
      <point x="213" y="-66"/>
      <point x="213" y="-88" type="qcurve" smooth="yes"/>
      <point x="213" y="-99" type="line" smooth="yes"/>
      <point x="213" y="-125"/>
      <point x="189" y="-189"/>
      <point x="168" y="-212" type="qcurve"/>
    </contour>
    <contour>
      <point x="154" y="0" type="line"/>
      <point x="125" y="1"/>
      <point x="125" y="29" type="qcurve" smooth="yes"/>
      <point x="125" y="487" type="line"/>
      <point x="30" y="487" type="line"/>
      <point x="30" y="506" type="line"/>
      <point x="102" y="506" type="line" smooth="yes"/>
      <point x="116" y="506"/>
      <point x="125" y="517"/>
      <point x="125" y="531" type="qcurve" smooth="yes"/>
      <point x="125" y="650" type="line"/>
      <point x="146" y="650" type="line"/>
      <point x="146" y="506" type="line"/>
      <point x="267" y="506" type="line"/>
      <point x="267" y="487" type="line"/>
      <point x="146" y="487" type="line"/>
      <point x="146" y="19" type="line"/>
      <point x="259" y="19" type="line"/>
      <point x="259" y="0" type="line"/>
    </contour>
  </outline>
</glyph>
<glyph name="Ubreve" format="2">
  <advance width="652"/>
  <unicode hex="016C"/>
  <outline>
    <contour>
      <point x="326" y="-12" type="qcurve" smooth="yes"/>
      <point x="200" y="-12"/>
      <point x="100" y="114"/>
      <point x="100" y="270" type="qcurve" smooth="yes"/>
      <point x="100" y="698" type="line"/>
      <point x="122" y="698" type="line"/>
      <point x="122" y="268" type="line" smooth="yes"/>
      <point x="122" y="126"/>
      <point x="166" y="67" type="qcurve"/>
      <point x="208" y="8"/>
      <point x="326" y="8" type="qcurve" smooth="yes"/>
      <point x="442" y="8"/>
      <point x="530" y="126"/>
      <point x="530" y="268" type="qcurve" smooth="yes"/>
      <point x="530" y="698" type="line"/>
      <point x="552" y="698" type="line"/>
      <point x="552" y="270" type="line" smooth="yes"/>
      <point x="552" y="114"/>
      <point x="452" y="-12"/>
    </contour>
    <contour>
      <point x="325" y="786" type="qcurve" smooth="yes"/>
      <point x="273" y="786"/>
      <point x="221" y="846"/>
      <point x="197" y="895" type="qcurve" smooth="yes"/>
      <point x="193" y="903" type="line"/>
      <point x="209" y="910" type="line"/>
      <point x="224" y="883" type="line" smooth="yes"/>
      <point x="249" y="836"/>
      <point x="272" y="821" type="qcurve"/>
      <point x="291" y="805"/>
      <point x="325" y="805" type="qcurve" smooth="yes"/>
      <point x="357" y="805"/>
      <point x="401" y="836"/>
      <point x="426" y="883" type="qcurve" smooth="yes"/>
      <point x="441" y="910" type="line"/>
      <point x="457" y="903" type="line"/>
      <point x="453" y="895" type="line" smooth="yes"/>
      <point x="429" y="846"/>
      <point x="375" y="786"/>
    </contour>
  </outline>
</glyph>
<glyph name="uring" format="2">
  <advance width="556"/>
  <unicode hex="016F"/>
  <outline>
    <contour>
      <point x="274" y="607" type="qcurve" smooth="yes"/>
      <point x="306" y="607"/>
      <point x="344" y="644"/>
      <point x="344" y="675" type="qcurve" smooth="yes"/>
      <point x="344" y="753"/>
      <point x="274" y="753" type="qcurve" smooth="yes"/>
      <point x="242" y="753"/>
      <point x="204" y="716"/>
      <point x="204" y="685" type="qcurve" smooth="yes"/>
      <point x="204" y="607"/>
    </contour>
    <contour>
      <point x="269" y="-12" type="qcurve" smooth="yes"/>
      <point x="95" y="-9"/>
      <point x="95" y="181" type="qcurve" smooth="yes"/>
      <point x="95" y="506" type="line"/>
      <point x="116" y="506" type="line"/>
      <point x="116" y="185" type="line" smooth="yes"/>
      <point x="116" y="7"/>
      <point x="271" y="7" type="qcurve" smooth="yes"/>
      <point x="333" y="7"/>
      <point x="382" y="41" type="qcurve"/>
      <point x="430" y="78"/>
      <point x="430" y="144" type="qcurve" smooth="yes"/>
      <point x="430" y="506" type="line"/>
      <point x="451" y="506" type="line"/>
      <point x="451" y="0" type="line"/>
      <point x="430" y="0" type="line"/>
      <point x="430" y="76" type="line"/>
      <point x="427" y="76" type="line"/>
      <point x="413" y="41"/>
      <point x="337" y="-12"/>
    </contour>
    <contour>
      <point x="274" y="589" type="qcurve" smooth="yes"/>
      <point x="233" y="589"/>
      <point x="184" y="639"/>
      <point x="184" y="680" type="qcurve" smooth="yes"/>
      <point x="184" y="721"/>
      <point x="233" y="771"/>
      <point x="274" y="771" type="qcurve" smooth="yes"/>
      <point x="315" y="771"/>
      <point x="364" y="721"/>
      <point x="364" y="680" type="qcurve" smooth="yes"/>
      <point x="364" y="639"/>
      <point x="315" y="589"/>
    </contour>
  </outline>
</glyph>
<glyph name="Wcircumflex" format="2">
  <advance width="872"/>
  <unicode hex="0174"/>
  <outline>
    <contour>
      <point x="626" y="0" type="line"/>
      <point x="437" y="674" type="line"/>
      <point x="434" y="674" type="line"/>
      <point x="246" y="0" type="line"/>
      <point x="216" y="0" type="line"/>
      <point x="30" y="698" type="line"/>
      <point x="54" y="698" type="line"/>
      <point x="230" y="31" type="line"/>
      <point x="233" y="31" type="line"/>
      <point x="420" y="698" type="line"/>
      <point x="452" y="698" type="line"/>
      <point x="639" y="31" type="line"/>
      <point x="642" y="31" type="line"/>
      <point x="819" y="698" type="line"/>
      <point x="842" y="698" type="line"/>
      <point x="656" y="0" type="line"/>
    </contour>
    <contour>
      <point x="433" y="906" type="line"/>
      <point x="307" y="779" type="line"/>
      <point x="293" y="790" type="line"/>
      <point x="421" y="923" type="line"/>
      <point x="445" y="923" type="line"/>
      <point x="573" y="790" type="line"/>
      <point x="559" y="779" type="line"/>
    </contour>
  </outline>
</glyph>
<glyph name="Ycircumflex" format="2">
  <advance width="546"/>
  <unicode hex="0176"/>
  <outline>
    <contour>
      <point x="262" y="0" type="line"/>
      <point x="262" y="294" type="line"/>
      <point x="21" y="698" type="line"/>
      <point x="46" y="698" type="line"/>
      <point x="272" y="320" type="line"/>
      <point x="275" y="320" type="line"/>
      <point x="501" y="698" type="line"/>
      <point x="525" y="698" type="line"/>
      <point x="284" y="294" type="line"/>
      <point x="284" y="0" type="line"/>
    </contour>
    <contour>
      <point x="273" y="906" type="line"/>
      <point x="147" y="779" type="line"/>
      <point x="133" y="790" type="line"/>
      <point x="261" y="923" type="line"/>
      <point x="285" y="923" type="line"/>
      <point x="413" y="790" type="line"/>
      <point x="399" y="779" type="line"/>
    </contour>
  </outline>
</glyph>
<glyph name="zdotaccent" format="2">
  <advance width="417"/>
  <unicode hex="017C"/>
  <outline>
    <contour>
      <point x="27" y="0" type="line"/>
      <point x="27" y="21" type="line"/>
      <point x="364" y="487" type="line"/>
      <point x="37" y="487" type="line"/>
      <point x="37" y="506" type="line"/>
      <point x="386" y="506" type="line"/>
      <point x="386" y="485" type="line"/>
      <point x="49" y="19" type="line"/>
      <point x="396" y="19" type="line"/>
      <point x="396" y="0" type="line"/>
    </contour>
    <contour>
      <point x="210" y="642" type="qcurve" smooth="yes"/>
      <point x="187" y="642"/>
      <point x="187" y="663" type="qcurve" smooth="yes"/>
      <point x="187" y="670" type="line" smooth="yes"/>
      <point x="187" y="691"/>
      <point x="210" y="691" type="qcurve" smooth="yes"/>
      <point x="233" y="691"/>
      <point x="233" y="670" type="qcurve" smooth="yes"/>
      <point x="233" y="663" type="line" smooth="yes"/>
      <point x="233" y="642"/>
    </contour>
  </outline>
</glyph>
<glyph name="ring" format="2">
  <advance width="600"/>
  <unicode hex="02DA"/>
  <outline>
    <contour>
      <point x="300" y="607" type="qcurve" smooth="yes"/>
      <point x="332" y="607"/>
      <point x="370" y="644"/>
      <point x="370" y="675" type="qcurve" smooth="yes"/>
      <point x="370" y="753"/>
      <point x="300" y="753" type="qcurve" smooth="yes"/>
      <point x="268" y="753"/>
      <point x="230" y="716"/>
      <point x="230" y="685" type="qcurve" smooth="yes"/>
      <point x="230" y="607"/>
    </contour>
    <contour>
      <point x="300" y="589" type="qcurve" smooth="yes"/>
      <point x="259" y="589"/>
      <point x="210" y="639"/>
      <point x="210" y="680" type="qcurve" smooth="yes"/>
      <point x="210" y="721"/>
      <point x="259" y="771"/>
      <point x="300" y="771" type="qcurve" smooth="yes"/>
      <point x="341" y="771"/>
      <point x="390" y="721"/>
      <point x="390" y="680" type="qcurve" smooth="yes"/>
      <point x="390" y="639"/>
      <point x="341" y="589"/>
    </contour>
  </outline>
</glyph>
<glyph name="brevecomb" format="2">
  <unicode hex="0306"/>
  <outline>
    <contour>
      <point x="1" y="606" type="qcurve" smooth="yes"/>
      <point x="-51" y="606"/>
      <point x="-103" y="666"/>
      <point x="-127" y="715" type="qcurve" smooth="yes"/>
      <point x="-131" y="723" type="line"/>
      <point x="-115" y="730" type="line"/>
      <point x="-100" y="703" type="line" smooth="yes"/>
      <point x="-75" y="656"/>
      <point x="-52" y="641" type="qcurve"/>
      <point x="-33" y="625"/>
      <point x="1" y="625" type="qcurve" smooth="yes"/>
      <point x="33" y="625"/>
      <point x="77" y="656"/>
      <point x="102" y="703" type="qcurve" smooth="yes"/>
      <point x="117" y="730" type="line"/>
      <point x="133" y="723" type="line"/>
      <point x="129" y="715" type="line" smooth="yes"/>
      <point x="105" y="666"/>
      <point x="51" y="606"/>
    </contour>
  </outline>
</glyph>
<glyph name="dieresiscomb" format="2">
  <unicode hex="0308"/>
  <outline>
    <contour>
      <point x="92" y="642" type="qcurve" smooth="yes"/>
      <point x="69" y="642"/>
      <point x="69" y="663" type="qcurve" smooth="yes"/>
      <point x="69" y="670" type="line" smooth="yes"/>
      <point x="69" y="691"/>
      <point x="92" y="691" type="qcurve" smooth="yes"/>
      <point x="115" y="691"/>
      <point x="115" y="670" type="qcurve" smooth="yes"/>
      <point x="115" y="663" type="line" smooth="yes"/>
      <point x="115" y="642"/>
    </contour>
    <contour>
      <point x="-90" y="642" type="qcurve" smooth="yes"/>
      <point x="-113" y="642"/>
      <point x="-113" y="663" type="qcurve" smooth="yes"/>
      <point x="-113" y="670" type="line" smooth="yes"/>
      <point x="-113" y="691"/>
      <point x="-90" y="691" type="qcurve" smooth="yes"/>
      <point x="-67" y="691"/>
      <point x="-67" y="670" type="qcurve" smooth="yes"/>
      <point x="-67" y="663" type="line" smooth="yes"/>
      <point x="-67" y="642"/>
    </contour>
  </outline>
</glyph>
<glyph name="Iota" format="2">
  <advance width="238"/>
  <unicode hex="0399"/>
  <outline>
    <contour>
      <point x="108" y="0" type="line"/>
      <point x="108" y="698" type="line"/>
      <point x="130" y="698" type="line"/>
      <point x="130" y="0" type="line"/>
    </contour>
  </outline>
</glyph>
<glyph name="Phi" format="2">
  <advance width="826"/>
  <unicode hex="03A6"/>
  <outline>
    <contour>
      <point x="460" y="57" type="line" smooth="yes"/>
      <point x="529" y="57"/>
      <point x="632" y="101"/>
      <point x="701" y="175"/>
      <point x="736" y="271"/>
      <point x="736" y="324" type="qcurve" smooth="yes"/>
      <point x="736" y="384" type="line" smooth="yes"/>
      <point x="736" y="436"/>
      <point x="701" y="533"/>
      <point x="632" y="607"/>
      <point x="529" y="651"/>
      <point x="460" y="651" type="qcurve" smooth="yes"/>
      <point x="424" y="651" type="line"/>
      <point x="424" y="57" type="line"/>
    </contour>
    <contour>
      <point x="402" y="651" type="line"/>
      <point x="366" y="651" type="line" smooth="yes"/>
      <point x="297" y="651"/>
      <point x="193" y="607"/>
      <point x="124" y="533"/>
      <point x="90" y="436"/>
      <point x="90" y="384" type="qcurve" smooth="yes"/>
      <point x="90" y="324" type="line" smooth="yes"/>
      <point x="90" y="271"/>
      <point x="124" y="175"/>
      <point x="193" y="101"/>
      <point x="297" y="57"/>
      <point x="366" y="57" type="qcurve" smooth="yes"/>
      <point x="402" y="57" type="line"/>
    </contour>
    <contour>
      <point x="402" y="37" type="line"/>
      <point x="366" y="37" type="line" smooth="yes"/>
      <point x="293" y="37"/>
      <point x="181" y="81"/>
      <point x="105" y="164"/>
      <point x="66" y="281"/>
      <point x="66" y="354" type="qcurve" smooth="yes"/>
      <point x="66" y="427"/>
      <point x="105" y="544"/>
      <point x="181" y="626"/>
      <point x="293" y="671"/>
      <point x="366" y="671" type="qcurve" smooth="yes"/>
      <point x="402" y="671" type="line"/>
      <point x="402" y="725" type="line"/>
      <point x="424" y="725" type="line"/>
      <point x="424" y="671" type="line"/>
      <point x="460" y="671" type="line" smooth="yes"/>
      <point x="533" y="671"/>
      <point x="645" y="626"/>
      <point x="721" y="544"/>
      <point x="760" y="427"/>
      <point x="760" y="354" type="qcurve" smooth="yes"/>
      <point x="760" y="281"/>
      <point x="721" y="164"/>
      <point x="645" y="81"/>
      <point x="533" y="37"/>
      <point x="460" y="37" type="qcurve" smooth="yes"/>
      <point x="424" y="37" type="line"/>
      <point x="424" y="-29" type="line"/>
      <point x="402" y="-29" type="line"/>
    </contour>
  </outline>
</glyph>
<glyph name="beta" format="2">
  <advance width="569"/>
  <unicode hex="03B2"/>
  <outline>
    <contour>
      <point x="209" y="415" type="line"/>
      <point x="301" y="415" type="line" smooth="yes"/>
      <point x="334" y="415"/>
      <point x="386" y="438"/>
      <point x="424" y="477"/>
      <point x="444" y="530"/>
      <point x="444" y="560" type="qcurve" smooth="yes"/>
      <point x="444" y="588" type="line" smooth="yes"/>
      <point x="444" y="619"/>
      <point x="420" y="673"/>
      <point x="378" y="711"/>
      <point x="322" y="733"/>
      <point x="290" y="733" type="qcurve" smooth="yes"/>
      <point x="205" y="733"/>
      <point x="126" y="625"/>
      <point x="126" y="521" type="qcurve" smooth="yes"/>
      <point x="126" y="143" type="line" smooth="yes"/>
      <point x="126" y="113"/>
      <point x="154" y="63"/>
      <point x="200" y="27"/>
      <point x="262" y="7"/>
      <point x="297" y="7" type="qcurve" smooth="yes"/>
      <point x="343" y="7"/>
      <point x="412" y="38"/>
      <point x="458" y="87"/>
      <point x="481" y="148"/>
      <point x="481" y="178" type="qcurve" smooth="yes"/>
      <point x="481" y="226" type="line" smooth="yes"/>
      <point x="481" y="263"/>
      <point x="457" y="326"/>
      <point x="410" y="371"/>
      <point x="344" y="396"/>
      <point x="302" y="396" type="qcurve" smooth="yes"/>
      <point x="209" y="396" type="line"/>
    </contour>
    <contour>
      <point x="105" y="513" type="line" smooth="yes"/>
      <point x="105" y="629"/>
      <point x="193" y="752"/>
      <point x="290" y="752" type="qcurve" smooth="yes"/>
      <point x="327" y="752"/>
      <point x="391" y="728"/>
      <point x="439" y="682"/>
      <point x="467" y="616"/>
      <point x="467" y="574" type="qcurve" smooth="yes"/>
      <point x="467" y="505"/>
      <point x="400" y="423"/>
      <point x="349" y="409" type="qcurve"/>
      <point x="349" y="406" type="line"/>
      <point x="504" y="379"/>
      <point x="504" y="202" type="qcurve" smooth="yes"/>
      <point x="504" y="153"/>
      <point x="475" y="74"/>
      <point x="421" y="18"/>
      <point x="344" y="-12"/>
      <point x="297" y="-12" type="qcurve" smooth="yes"/>
      <point x="262" y="-12"/>
      <point x="207" y="4"/>
      <point x="165" y="29"/>
      <point x="137" y="61"/>
      <point x="129" y="78" type="qcurve"/>
      <point x="126" y="78" type="line"/>
      <point x="126" y="-200" type="line"/>
      <point x="105" y="-200" type="line"/>
    </contour>
  </outline>
</glyph>
<glyph name="omega" format="2">
  <advance width="699"/>
  <unicode hex="03C9"/>
  <outline>
    <contour>
      <point x="360" y="225" type="line" smooth="yes"/>
      <point x="360" y="161"/>
      <point x="379" y="77"/>
      <point x="412" y="27"/>
      <point x="459" y="7"/>
      <point x="486" y="7" type="qcurve" smooth="yes"/>
      <point x="549" y="7"/>
      <point x="610" y="106"/>
      <point x="610" y="215" type="qcurve" smooth="yes"/>
      <point x="610" y="263" type="line" smooth="yes"/>
      <point x="610" y="351"/>
      <point x="555" y="472"/>
      <point x="498" y="501" type="qcurve"/>
      <point x="509" y="518" type="line"/>
      <point x="571" y="485"/>
      <point x="633" y="352"/>
      <point x="633" y="239" type="qcurve" smooth="yes"/>
      <point x="633" y="105"/>
      <point x="558" y="-12"/>
      <point x="486" y="-12" type="qcurve" smooth="yes"/>
      <point x="427" y="-12"/>
      <point x="360" y="61"/>
      <point x="351" y="130" type="qcurve"/>
      <point x="348" y="130" type="line"/>
      <point x="339" y="61"/>
      <point x="272" y="-12"/>
      <point x="213" y="-12" type="qcurve" smooth="yes"/>
      <point x="141" y="-12"/>
      <point x="66" y="105"/>
      <point x="66" y="239" type="qcurve" smooth="yes"/>
      <point x="66" y="352"/>
      <point x="128" y="485"/>
      <point x="190" y="518" type="qcurve"/>
      <point x="201" y="501" type="line"/>
      <point x="144" y="472"/>
      <point x="89" y="351"/>
      <point x="89" y="263" type="qcurve" smooth="yes"/>
      <point x="89" y="215" type="line" smooth="yes"/>
      <point x="89" y="106"/>
      <point x="150" y="7"/>
      <point x="213" y="7" type="qcurve" smooth="yes"/>
      <point x="240" y="7"/>
      <point x="287" y="27"/>
      <point x="320" y="77"/>
      <point x="339" y="161"/>
      <point x="339" y="225" type="qcurve" smooth="yes"/>
      <point x="339" y="349" type="line"/>
      <point x="360" y="349" type="line"/>
    </contour>
  </outline>
</glyph>
<glyph name="iotadieresis" format="2">
  <advance width="269"/>
  <unicode hex="03CA"/>
  <outline>
    <contour>
      <point x="239" y="0" type="line"/>
      <point x="134" y="0" type="line" smooth="yes"/>
      <point x="105" y="0"/>
      <point x="105" y="29" type="qcurve" smooth="yes"/>
      <point x="105" y="506" type="line"/>
      <point x="126" y="506" type="line"/>
      <point x="126" y="19" type="line"/>
      <point x="239" y="19" type="line"/>
    </contour>
    <contour>
      <point x="34" y="642" type="qcurve" smooth="yes"/>
      <point x="21" y="642"/>
      <point x="11" y="655"/>
      <point x="11" y="663" type="qcurve" smooth="yes"/>
      <point x="11" y="670" type="line" smooth="yes"/>
      <point x="11" y="678"/>
      <point x="21" y="691"/>
      <point x="34" y="691" type="qcurve" smooth="yes"/>
      <point x="47" y="691"/>
      <point x="57" y="678"/>
      <point x="57" y="670" type="qcurve" smooth="yes"/>
      <point x="57" y="663" type="line" smooth="yes"/>
      <point x="57" y="655"/>
      <point x="47" y="642"/>
    </contour>
    <contour>
      <point x="216" y="642" type="qcurve" smooth="yes"/>
      <point x="203" y="642"/>
      <point x="193" y="655"/>
      <point x="193" y="663" type="qcurve" smooth="yes"/>
      <point x="193" y="670" type="line" smooth="yes"/>
      <point x="193" y="678"/>
      <point x="203" y="691"/>
      <point x="216" y="691" type="qcurve" smooth="yes"/>
      <point x="229" y="691"/>
      <point x="239" y="678"/>
      <point x="239" y="670" type="qcurve" smooth="yes"/>
      <point x="239" y="663" type="line" smooth="yes"/>
      <point x="239" y="655"/>
      <point x="229" y="642"/>
    </contour>
  </outline>
</glyph>
<glyph name="upsilondieresis" format="2">
  <advance width="546"/>
  <unicode hex="03CB"/>
  <outline>
    <contour>
      <point x="116" y="215" type="line" smooth="yes"/>
      <point x="116" y="156"/>
      <point x="136" y="76"/>
      <point x="175" y="28"/>
      <point x="234" y="7"/>
      <point x="273" y="7" type="qcurve" smooth="yes"/>
      <point x="312" y="7"/>
      <point x="371" y="28"/>
      <point x="410" y="76"/>
      <point x="430" y="156"/>
      <point x="430" y="215" type="qcurve" smooth="yes"/>
      <point x="430" y="506" type="line"/>
      <point x="451" y="506" type="line"/>
      <point x="451" y="229" type="line" smooth="yes"/>
      <point x="451" y="163"/>
      <point x="430" y="71"/>
      <point x="387" y="14"/>
      <point x="319" y="-12"/>
      <point x="273" y="-12" type="qcurve" smooth="yes"/>
      <point x="226" y="-12"/>
      <point x="159" y="14"/>
      <point x="116" y="71"/>
      <point x="95" y="163"/>
      <point x="95" y="229" type="qcurve" smooth="yes"/>
      <point x="95" y="506" type="line"/>
      <point x="116" y="506" type="line"/>
    </contour>
    <contour>
      <point x="183" y="642" type="qcurve" smooth="yes"/>
      <point x="170" y="642"/>
      <point x="160" y="655"/>
      <point x="160" y="663" type="qcurve" smooth="yes"/>
      <point x="160" y="670" type="line" smooth="yes"/>
      <point x="160" y="678"/>
      <point x="170" y="691"/>
      <point x="183" y="691" type="qcurve" smooth="yes"/>
      <point x="196" y="691"/>
      <point x="206" y="678"/>
      <point x="206" y="670" type="qcurve" smooth="yes"/>
      <point x="206" y="663" type="line" smooth="yes"/>
      <point x="206" y="655"/>
      <point x="196" y="642"/>
    </contour>
    <contour>
      <point x="365" y="642" type="qcurve" smooth="yes"/>
      <point x="352" y="642"/>
      <point x="342" y="655"/>
      <point x="342" y="663" type="qcurve" smooth="yes"/>
      <point x="342" y="670" type="line" smooth="yes"/>
      <point x="342" y="678"/>
      <point x="352" y="691"/>
      <point x="365" y="691" type="qcurve" smooth="yes"/>
      <point x="378" y="691"/>
      <point x="388" y="678"/>
      <point x="388" y="670" type="qcurve" smooth="yes"/>
      <point x="388" y="663" type="line" smooth="yes"/>
      <point x="388" y="655"/>
      <point x="378" y="642"/>
    </contour>
  </outline>
</glyph>
<glyph name="Gjecyr" format="2">
  <advance width="506"/>
  <unicode hex="0403"/>
  <outline>
    <contour>
      <point x="108" y="0" type="line"/>
      <point x="108" y="698" type="line"/>
      <point x="462" y="698" type="line"/>
      <point x="462" y="678" type="line"/>
      <point x="130" y="678" type="line"/>
      <point x="130" y="0" type="line"/>
    </contour>
    <contour>
      <point x="253" y="777" type="line"/>
      <point x="364" y="931" type="line"/>
      <point x="383" y="919" type="line"/>
      <point x="268" y="767" type="line"/>
    </contour>
  </outline>
</glyph>
<glyph name="Yukrcyr" format="2">
  <advance width="238"/>
  <unicode hex="0407"/>
  <outline>
    <contour>
      <point x="108" y="0" type="line"/>
      <point x="108" y="698" type="line"/>
      <point x="130" y="698" type="line"/>
      <point x="130" y="0" type="line"/>
    </contour>
    <contour>
      <point x="28" y="819" type="qcurve" smooth="yes"/>
      <point x="5" y="819"/>
      <point x="5" y="840" type="qcurve" smooth="yes"/>
      <point x="5" y="847" type="line" smooth="yes"/>
      <point x="5" y="868"/>
      <point x="28" y="868" type="qcurve" smooth="yes"/>
      <point x="51" y="868"/>
      <point x="51" y="847" type="qcurve" smooth="yes"/>
      <point x="51" y="840" type="line" smooth="yes"/>
      <point x="51" y="819"/>
    </contour>
    <contour>
      <point x="210" y="819" type="qcurve" smooth="yes"/>
      <point x="187" y="819"/>
      <point x="187" y="840" type="qcurve" smooth="yes"/>
      <point x="187" y="847" type="line" smooth="yes"/>
      <point x="187" y="868"/>
      <point x="210" y="868" type="qcurve" smooth="yes"/>
      <point x="233" y="868"/>
      <point x="233" y="847" type="qcurve" smooth="yes"/>
      <point x="233" y="840" type="line" smooth="yes"/>
      <point x="233" y="819"/>
    </contour>
  </outline>
</glyph>
<glyph name="Decyr" format="2">
  <advance width="667"/>
  <unicode hex="0414"/>
  <outline>
    <contour>
      <point x="507" y="678" type="line"/>
      <point x="201" y="678" type="line"/>
      <point x="201" y="513" type="line" smooth="yes"/>
      <point x="201" y="336"/>
      <point x="152" y="92"/>
      <point x="109" y="23" type="qcurve"/>
      <point x="109" y="20" type="line"/>
      <point x="507" y="20" type="line"/>
    </contour>
    <contour>
      <point x="595" y="-150" type="line"/>
      <point x="595" y="0" type="line"/>
      <point x="32" y="0" type="line"/>
      <point x="32" y="-150" type="line"/>
      <point x="10" y="-150" type="line"/>
      <point x="10" y="20" type="line"/>
      <point x="81" y="20" type="line"/>
      <point x="179" y="158"/>
      <point x="179" y="512" type="qcurve" smooth="yes"/>
      <point x="179" y="698" type="line"/>
      <point x="529" y="698" type="line"/>
      <point x="529" y="20" type="line"/>
      <point x="617" y="20" type="line"/>
      <point x="617" y="-150" type="line"/>
    </contour>
  </outline>
</glyph>
<glyph name="pecyr" format="2">
  <advance width="566"/>
  <unicode hex="043F"/>
  <outline>
    <contour>
      <point x="440" y="0" type="line"/>
      <point x="440" y="487" type="line"/>
      <point x="126" y="487" type="line"/>
      <point x="126" y="0" type="line"/>
      <point x="105" y="0" type="line"/>
      <point x="105" y="506" type="line"/>
      <point x="461" y="506" type="line"/>
      <point x="461" y="0" type="line"/>
    </contour>
  </outline>
</glyph>
<glyph name="kabashkcyr" format="2">
  <advance width="599"/>
  <unicode hex="04A1"/>
  <outline>
    <contour>
      <point x="503" y="0" type="line" smooth="yes"/>
      <point x="494" y="0"/>
      <point x="483" y="6"/>
      <point x="478" y="14" type="qcurve" smooth="yes"/>
      <point x="327" y="256" type="line"/>
      <point x="205" y="256" type="line"/>
      <point x="205" y="0" type="line"/>
      <point x="184" y="0" type="line"/>
      <point x="184" y="487" type="line"/>
      <point x="35" y="487" type="line"/>
      <point x="35" y="506" type="line"/>
      <point x="205" y="506" type="line"/>
      <point x="205" y="275" type="line"/>
      <point x="327" y="275" type="line"/>
      <point x="470" y="488" type="line"/>
      <point x="476" y="498"/>
      <point x="489" y="506"/>
      <point x="500" y="506" type="qcurve" smooth="yes"/>
      <point x="550" y="506" type="line"/>
      <point x="550" y="487" type="line"/>
      <point x="493" y="487" type="line"/>
      <point x="355" y="282"/>
      <point x="342" y="269"/>
      <point x="331" y="267" type="qcurve"/>
      <point x="331" y="264" type="line"/>
      <point x="342" y="262"/>
      <point x="359" y="246"/>
      <point x="371" y="226" type="qcurve" smooth="yes"/>
      <point x="500" y="19" type="line"/>
      <point x="557" y="19" type="line"/>
      <point x="557" y="0" type="line"/>
    </contour>
  </outline>
</glyph>
<glyph name="chevertcyr" format="2">
  <advance width="521"/>
  <unicode hex="04B9"/>
  <outline>
    <contour>
      <point x="395" y="0" type="line"/>
      <point x="395" y="278" type="line"/>
      <point x="392" y="278" type="line"/>
      <point x="378" y="245"/>
      <point x="307" y="199"/>
      <point x="247" y="195" type="qcurve"/>
      <point x="247" y="93" type="line"/>
      <point x="227" y="93" type="line"/>
      <point x="227" y="195" type="line"/>
      <point x="60" y="198"/>
      <point x="60" y="356" type="qcurve" smooth="yes"/>
      <point x="60" y="506" type="line"/>
      <point x="81" y="506" type="line"/>
      <point x="81" y="360" type="line" smooth="yes"/>
      <point x="81" y="282"/>
      <point x="158" y="215"/>
      <point x="227" y="214" type="qcurve"/>
      <point x="227" y="373" type="line"/>
      <point x="247" y="373" type="line"/>
      <point x="247" y="214" type="line"/>
      <point x="317" y="218"/>
      <point x="395" y="288"/>
      <point x="395" y="346" type="qcurve" smooth="yes"/>
      <point x="395" y="506" type="line"/>
      <point x="416" y="506" type="line"/>
      <point x="416" y="0" type="line"/>
    </contour>
  </outline>
</glyph>
<glyph name="Abrevecyr" format="2">
  <advance width="600"/>
  <unicode hex="04D0"/>
  <outline>
    <contour>
      <point x="301" y="675" type="line"/>
      <point x="298" y="675" type="line"/>
      <point x="147" y="253" type="line"/>
      <point x="453" y="253" type="line"/>
    </contour>
    <contour>
      <point x="545" y="0" type="line"/>
      <point x="460" y="234" type="line"/>
      <point x="140" y="234" type="line"/>
      <point x="55" y="0" type="line"/>
      <point x="32" y="0" type="line"/>
      <point x="285" y="698" type="line"/>
      <point x="315" y="698" type="line"/>
      <point x="568" y="0" type="line"/>
    </contour>
    <contour>
      <point x="300" y="786" type="qcurve" smooth="yes"/>
      <point x="222" y="786"/>
      <point x="181" y="877" type="qcurve" smooth="yes"/>
      <point x="169" y="902" type="line"/>
      <point x="187" y="910" type="line"/>
      <point x="222" y="844" type="line"/>
      <point x="251" y="804"/>
      <point x="300" y="804" type="qcurve" smooth="yes"/>
      <point x="350" y="804"/>
      <point x="378" y="844" type="qcurve"/>
      <point x="413" y="910" type="line"/>
      <point x="431" y="902" type="line"/>
      <point x="419" y="877" type="line" smooth="yes"/>
      <point x="378" y="786"/>
    </contour>
  </outline>
</glyph>
<glyph name="chedieresiscyr" format="2">
  <advance width="521"/>
  <unicode hex="04F5"/>
  <outline>
    <contour>
      <point x="395" y="0" type="line"/>
      <point x="395" y="278" type="line"/>
      <point x="392" y="278" type="line"/>
      <point x="377" y="244"/>
      <point x="300" y="195"/>
      <point x="232" y="195" type="qcurve" smooth="yes"/>
      <point x="60" y="195"/>
      <point x="60" y="356" type="qcurve" smooth="yes"/>
      <point x="60" y="506" type="line"/>
      <point x="81" y="506" type="line"/>
      <point x="81" y="360" type="line" smooth="yes"/>
      <point x="81" y="280"/>
      <point x="162" y="214"/>
      <point x="234" y="214" type="qcurve" smooth="yes"/>
      <point x="308" y="214"/>
      <point x="395" y="285"/>
      <point x="395" y="346" type="qcurve" smooth="yes"/>
      <point x="395" y="506" type="line"/>
      <point x="416" y="506" type="line"/>
      <point x="416" y="0" type="line"/>
    </contour>
    <contour>
      <point x="147" y="642" type="qcurve" smooth="yes"/>
      <point x="124" y="642"/>
      <point x="124" y="663" type="qcurve" smooth="yes"/>
      <point x="124" y="670" type="line" smooth="yes"/>
      <point x="124" y="691"/>
      <point x="147" y="691" type="qcurve" smooth="yes"/>
      <point x="170" y="691"/>
      <point x="170" y="670" type="qcurve" smooth="yes"/>
      <point x="170" y="663" type="line" smooth="yes"/>
      <point x="170" y="642"/>
    </contour>
    <contour>
      <point x="329" y="642" type="qcurve" smooth="yes"/>
      <point x="306" y="642"/>
      <point x="306" y="663" type="qcurve" smooth="yes"/>
      <point x="306" y="670" type="line" smooth="yes"/>
      <point x="306" y="691"/>
      <point x="329" y="691" type="qcurve" smooth="yes"/>
      <point x="352" y="691"/>
      <point x="352" y="670" type="qcurve" smooth="yes"/>
      <point x="352" y="663" type="line" smooth="yes"/>
      <point x="352" y="642"/>
    </contour>
  </outline>
</glyph>
<glyph name="Acircumflexhoi" format="2">
  <advance width="600"/>
  <unicode hex="1EA8"/>
  <outline>
    <contour>
      <point x="301" y="675" type="line"/>
      <point x="298" y="675" type="line"/>
      <point x="147" y="253" type="line"/>
      <point x="453" y="253" type="line"/>
    </contour>
    <contour>
      <point x="545" y="0" type="line"/>
      <point x="460" y="234" type="line"/>
      <point x="140" y="234" type="line"/>
      <point x="55" y="0" type="line"/>
      <point x="32" y="0" type="line"/>
      <point x="285" y="698" type="line"/>
      <point x="315" y="698" type="line"/>
      <point x="568" y="0" type="line"/>
    </contour>
    <contour>
      <point x="402" y="883" type="line"/>
      <point x="479" y="1009" type="line"/>
      <point x="338" y="1009" type="line"/>
      <point x="338" y="1027" type="line"/>
      <point x="475" y="1027" type="line" smooth="yes"/>
      <point x="498" y="1027"/>
      <point x="498" y="1009" type="qcurve" smooth="yes"/>
      <point x="498" y="1003"/>
      <point x="493" y="992" type="qcurve"/>
      <point x="418" y="875" type="line"/>
    </contour>
    <contour>
      <point x="299" y="898" type="line"/>
      <point x="173" y="771" type="line"/>
      <point x="159" y="782" type="line"/>
      <point x="287" y="915" type="line"/>
      <point x="311" y="915" type="line"/>
      <point x="439" y="782" type="line"/>
      <point x="425" y="771" type="line"/>
    </contour>
  </outline>
</glyph>
<glyph name="Abrevetilde" format="2">
  <advance width="600"/>
  <unicode hex="1EB4"/>
  <outline>
    <contour>
      <point x="301" y="675" type="line"/>
      <point x="298" y="675" type="line"/>
      <point x="147" y="253" type="line"/>
      <point x="453" y="253" type="line"/>
    </contour>
    <contour>
      <point x="545" y="0" type="line"/>
      <point x="460" y="234" type="line"/>
      <point x="140" y="234" type="line"/>
      <point x="55" y="0" type="line"/>
      <point x="32" y="0" type="line"/>
      <point x="285" y="698" type="line"/>
      <point x="315" y="698" type="line"/>
      <point x="568" y="0" type="line"/>
    </contour>
    <contour>
      <point x="370" y="943" type="qcurve" smooth="yes"/>
      <point x="353" y="943"/>
      <point x="319" y="956"/>
      <point x="293" y="973" type="qcurve"/>
      <point x="256" y="999"/>
      <point x="227" y="999" type="qcurve" smooth="yes"/>
      <point x="193" y="999"/>
      <point x="162" y="966" type="qcurve"/>
      <point x="150" y="978" type="line"/>
      <point x="185" y="1017"/>
      <point x="228" y="1017" type="qcurve" smooth="yes"/>
      <point x="245" y="1017"/>
      <point x="279" y="1004"/>
      <point x="305" y="987" type="qcurve" smooth="yes"/>
      <point x="343" y="961"/>
      <point x="371" y="961" type="qcurve" smooth="yes"/>
      <point x="407" y="961"/>
      <point x="436" y="994" type="qcurve"/>
      <point x="448" y="982" type="line"/>
      <point x="414" y="943"/>
    </contour>
    <contour>
      <point x="299" y="774" type="qcurve" smooth="yes"/>
      <point x="247" y="774"/>
      <point x="191" y="830"/>
      <point x="167" y="881" type="qcurve"/>
      <point x="183" y="888" type="line"/>
      <point x="199" y="861" type="line" smooth="yes"/>
      <point x="222" y="820"/>
      <point x="265" y="793"/>
      <point x="299" y="793" type="qcurve" smooth="yes"/>
      <point x="331" y="793"/>
      <point x="376" y="820"/>
      <point x="399" y="861" type="qcurve" smooth="yes"/>
      <point x="415" y="888" type="line"/>
      <point x="431" y="881" type="line"/>
      <point x="407" y="829"/>
      <point x="349" y="774"/>
    </contour>
  </outline>
</glyph>
<glyph name="Abrevedotbelow" format="2">
  <advance width="600"/>
  <unicode hex="1EB6"/>
  <outline>
    <contour>
      <point x="301" y="675" type="line"/>
      <point x="298" y="675" type="line"/>
      <point x="147" y="253" type="line"/>
      <point x="453" y="253" type="line"/>
    </contour>
    <contour>
      <point x="306" y="-134" type="qcurve" smooth="yes"/>
      <point x="283" y="-134"/>
      <point x="283" y="-113" type="qcurve" smooth="yes"/>
      <point x="283" y="-106" type="line" smooth="yes"/>
      <point x="283" y="-85"/>
      <point x="306" y="-85" type="qcurve" smooth="yes"/>
      <point x="329" y="-85"/>
      <point x="329" y="-106" type="qcurve" smooth="yes"/>
      <point x="329" y="-113" type="line" smooth="yes"/>
      <point x="329" y="-134"/>
    </contour>
    <contour>
      <point x="300" y="786" type="qcurve" smooth="yes"/>
      <point x="248" y="786"/>
      <point x="196" y="846"/>
      <point x="172" y="895" type="qcurve" smooth="yes"/>
      <point x="168" y="903" type="line"/>
      <point x="184" y="910" type="line"/>
      <point x="199" y="883" type="line" smooth="yes"/>
      <point x="224" y="836"/>
      <point x="247" y="821" type="qcurve"/>
      <point x="266" y="805"/>
      <point x="300" y="805" type="qcurve" smooth="yes"/>
      <point x="332" y="805"/>
      <point x="376" y="836"/>
      <point x="401" y="883" type="qcurve" smooth="yes"/>
      <point x="416" y="910" type="line"/>
      <point x="432" y="903" type="line"/>
      <point x="428" y="895" type="line" smooth="yes"/>
      <point x="404" y="846"/>
      <point x="350" y="786"/>
    </contour>
    <contour>
      <point x="545" y="0" type="line"/>
      <point x="460" y="234" type="line"/>
      <point x="140" y="234" type="line"/>
      <point x="55" y="0" type="line"/>
      <point x="32" y="0" type="line"/>
      <point x="285" y="698" type="line"/>
      <point x="315" y="698" type="line"/>
      <point x="568" y="0" type="line"/>
    </contour>
  </outline>
</glyph>
<glyph name="Edotbelow" format="2">
  <advance width="561"/>
  <unicode hex="1EB8"/>
  <outline>
    <contour>
      <point x="299" y="-134" type="qcurve" smooth="yes"/>
      <point x="276" y="-134"/>
      <point x="276" y="-113" type="qcurve" smooth="yes"/>
      <point x="276" y="-106" type="line" smooth="yes"/>
      <point x="276" y="-85"/>
      <point x="299" y="-85" type="qcurve" smooth="yes"/>
      <point x="322" y="-85"/>
      <point x="322" y="-106" type="qcurve" smooth="yes"/>
      <point x="322" y="-113" type="line" smooth="yes"/>
      <point x="322" y="-134"/>
    </contour>
    <contour>
      <point x="108" y="0" type="line"/>
      <point x="108" y="698" type="line"/>
      <point x="489" y="698" type="line"/>
      <point x="489" y="678" type="line"/>
      <point x="130" y="678" type="line"/>
      <point x="130" y="364" type="line"/>
      <point x="477" y="364" type="line"/>
      <point x="477" y="344" type="line"/>
      <point x="130" y="344" type="line"/>
      <point x="130" y="20" type="line"/>
      <point x="489" y="20" type="line"/>
      <point x="489" y="0" type="line"/>
    </contour>
  </outline>
</glyph>
<glyph name="Ohorndotbelow" format="2">
  <advance width="680"/>
  <unicode hex="1EE2"/>
  <outline>
    <contour>
      <point x="340" y="8" type="qcurve" smooth="yes"/>
      <point x="455" y="8"/>
      <point x="586" y="169"/>
      <point x="586" y="328" type="qcurve" smooth="yes"/>
      <point x="586" y="370" type="line" smooth="yes"/>
      <point x="586" y="529"/>
      <point x="455" y="690"/>
      <point x="340" y="690" type="qcurve" smooth="yes"/>
      <point x="225" y="690"/>
      <point x="94" y="529"/>
      <point x="94" y="370" type="qcurve" smooth="yes"/>
      <point x="94" y="328" type="line" smooth="yes"/>
      <point x="94" y="169"/>
      <point x="225" y="8"/>
    </contour>
    <contour>
      <point x="346" y="-134" type="qcurve" smooth="yes"/>
      <point x="323" y="-134"/>
      <point x="323" y="-113" type="qcurve" smooth="yes"/>
      <point x="323" y="-106" type="line" smooth="yes"/>
      <point x="323" y="-85"/>
      <point x="346" y="-85" type="qcurve" smooth="yes"/>
      <point x="369" y="-85"/>
      <point x="369" y="-106" type="qcurve" smooth="yes"/>
      <point x="369" y="-113" type="line" smooth="yes"/>
      <point x="369" y="-134"/>
    </contour>
    <contour>
      <point x="340" y="-12" type="qcurve" smooth="yes"/>
      <point x="209" y="-12"/>
      <point x="70" y="168"/>
      <point x="70" y="349" type="qcurve" smooth="yes"/>
      <point x="70" y="530"/>
      <point x="209" y="710"/>
      <point x="340" y="710" type="qcurve" smooth="yes"/>
      <point x="393" y="710"/>
      <point x="428" y="698" type="qcurve"/>
      <point x="588" y="698" type="line"/>
      <point x="588" y="812" type="line"/>
      <point x="608" y="812" type="line"/>
      <point x="608" y="709" type="line" smooth="yes"/>
      <point x="608" y="680"/>
      <point x="579" y="680" type="qcurve" smooth="yes"/>
      <point x="470" y="680" type="line"/>
      <point x="537" y="643"/>
      <point x="610" y="483"/>
      <point x="610" y="349" type="qcurve" smooth="yes"/>
      <point x="610" y="168"/>
      <point x="471" y="-12"/>
    </contour>
  </outline>
</glyph>
<glyph name="Udotbelow" format="2">
  <advance width="652"/>
  <unicode hex="1EE4"/>
  <outline>
    <contour>
      <point x="326" y="-134" type="qcurve" smooth="yes"/>
      <point x="303" y="-134"/>
      <point x="303" y="-113" type="qcurve" smooth="yes"/>
      <point x="303" y="-106" type="line" smooth="yes"/>
      <point x="303" y="-85"/>
      <point x="326" y="-85" type="qcurve" smooth="yes"/>
      <point x="349" y="-85"/>
      <point x="349" y="-106" type="qcurve" smooth="yes"/>
      <point x="349" y="-113" type="line" smooth="yes"/>
      <point x="349" y="-134"/>
    </contour>
    <contour>
      <point x="326" y="-12" type="qcurve" smooth="yes"/>
      <point x="200" y="-12"/>
      <point x="100" y="114"/>
      <point x="100" y="270" type="qcurve" smooth="yes"/>
      <point x="100" y="698" type="line"/>
      <point x="122" y="698" type="line"/>
      <point x="122" y="268" type="line" smooth="yes"/>
      <point x="122" y="126"/>
      <point x="166" y="67" type="qcurve"/>
      <point x="208" y="8"/>
      <point x="326" y="8" type="qcurve" smooth="yes"/>
      <point x="442" y="8"/>
      <point x="530" y="126"/>
      <point x="530" y="268" type="qcurve" smooth="yes"/>
      <point x="530" y="698" type="line"/>
      <point x="552" y="698" type="line"/>
      <point x="552" y="270" type="line" smooth="yes"/>
      <point x="552" y="114"/>
      <point x="452" y="-12"/>
    </contour>
  </outline>
</glyph>
<glyph name="quotesinglbase" format="2">
  <advance width="240"/>
  <unicode hex="201A"/>
  <outline>
    <contour>
      <point x="52" y="-134" type="line"/>
      <point x="120" y="-64"/>
      <point x="126" y="8" type="qcurve"/>
      <point x="94" y="8"/>
      <point x="94" y="31" type="qcurve" smooth="yes"/>
      <point x="94" y="40" type="line" smooth="yes"/>
      <point x="94" y="66"/>
      <point x="122" y="66" type="qcurve" smooth="yes"/>
      <point x="148" y="66"/>
      <point x="148" y="40" type="qcurve" smooth="yes"/>
      <point x="148" y="28" type="line" smooth="yes"/>
      <point x="148" y="-14"/>
      <point x="104" y="-103"/>
      <point x="71" y="-134" type="qcurve"/>
    </contour>
  </outline>
</glyph>
<glyph name="peso" format="2">
  <advance width="607"/>
  <unicode hex="20B1"/>
  <outline>
    <contour>
      <point x="335" y="277" type="line" smooth="yes"/>
      <point x="401" y="277"/>
      <point x="438" y="312" type="qcurve"/>
      <point x="474" y="344"/>
      <point x="482" y="393" type="qcurve"/>
      <point x="133" y="393" type="line"/>
      <point x="133" y="277" type="line"/>
    </contour>
    <contour>
      <point x="482" y="562" type="line"/>
      <point x="470" y="641"/>
      <point x="394" y="669" type="qcurve" smooth="yes"/>
      <point x="368" y="678"/>
      <point x="335" y="678" type="qcurve" smooth="yes"/>
      <point x="133" y="678" type="line"/>
      <point x="133" y="562" type="line"/>
    </contour>
    <contour>
      <point x="484" y="543" type="line"/>
      <point x="133" y="543" type="line"/>
      <point x="133" y="412" type="line"/>
      <point x="484" y="412" type="line"/>
    </contour>
    <contour>
      <point x="111" y="0" type="line"/>
      <point x="111" y="393" type="line"/>
      <point x="16" y="393" type="line"/>
      <point x="16" y="412" type="line"/>
      <point x="111" y="412" type="line"/>
      <point x="111" y="543" type="line"/>
      <point x="16" y="543" type="line"/>
      <point x="16" y="562" type="line"/>
      <point x="111" y="562" type="line"/>
      <point x="111" y="698" type="line"/>
      <point x="335" y="698" type="line" smooth="yes"/>
      <point x="407" y="698"/>
      <point x="492" y="626"/>
      <point x="504" y="562" type="qcurve"/>
      <point x="591" y="562" type="line"/>
      <point x="591" y="543" type="line"/>
      <point x="506" y="543" type="line"/>
      <point x="506" y="412" type="line"/>
      <point x="591" y="412" type="line"/>
      <point x="591" y="393" type="line"/>
      <point x="504" y="393" type="line"/>
      <point x="492" y="329"/>
      <point x="407" y="257"/>
      <point x="335" y="257" type="qcurve" smooth="yes"/>
      <point x="133" y="257" type="line"/>
      <point x="133" y="0" type="line"/>
    </contour>
  </outline>
</glyph>
<glyph name="cedi" format="2">
  <advance width="610"/>
  <unicode hex="20B5"/>
  <outline>
    <contour>
      <point x="360" y="678" type="line"/>
      <point x="338" y="680"/>
      <point x="329" y="680" type="qcurve" smooth="yes"/>
      <point x="219" y="680"/>
      <point x="94" y="531"/>
      <point x="94" y="370" type="qcurve" smooth="yes"/>
      <point x="94" y="328" type="line" smooth="yes"/>
      <point x="94" y="68"/>
      <point x="261" y="26" type="qcurve"/>
    </contour>
    <contour>
      <point x="242" y="-82" type="line"/>
      <point x="258" y="6" type="line"/>
      <point x="70" y="50"/>
      <point x="70" y="349" type="qcurve" smooth="yes"/>
      <point x="70" y="529"/>
      <point x="205" y="700"/>
      <point x="329" y="700" type="qcurve" smooth="yes"/>
      <point x="347" y="700"/>
      <point x="363" y="698" type="qcurve"/>
      <point x="376" y="780" type="line"/>
      <point x="397" y="780" type="line"/>
      <point x="383" y="694" type="line"/>
      <point x="498" y="665"/>
      <point x="545" y="557" type="qcurve"/>
      <point x="526" y="548" type="line"/>
      <point x="482" y="650"/>
      <point x="380" y="674" type="qcurve"/>
      <point x="281" y="22" type="line"/>
      <point x="301" y="18"/>
      <point x="329" y="18" type="qcurve" smooth="yes"/>
      <point x="404" y="18"/>
      <point x="505" y="92"/>
      <point x="531" y="158" type="qcurve"/>
      <point x="550" y="150" type="line"/>
      <point x="523" y="80"/>
      <point x="410" y="-2"/>
      <point x="329" y="-2" type="qcurve" smooth="yes"/>
      <point x="301" y="-2"/>
      <point x="277" y="2" type="qcurve"/>
      <point x="263" y="-82" type="line"/>
    </contour>
  </outline>
</glyph>
<glyph name="indianrupee" format="2">
  <advance width="611"/>
  <unicode hex="20B9"/>
  <outline>
    <contour>
      <point x="489" y="0" type="line"/>
      <point x="244" y="322" type="line"/>
      <point x="70" y="322" type="line"/>
      <point x="70" y="342" type="line"/>
      <point x="293" y="342" type="line" smooth="yes"/>
      <point x="370" y="342"/>
      <point x="443" y="431"/>
      <point x="443" y="497" type="qcurve" smooth="yes"/>
      <point x="443" y="509" type="line"/>
      <point x="70" y="509" type="line"/>
      <point x="70" y="529" type="line"/>
      <point x="443" y="529" type="line"/>
      <point x="443" y="594"/>
      <point x="367" y="678"/>
      <point x="295" y="678" type="qcurve" smooth="yes"/>
      <point x="70" y="678" type="line"/>
      <point x="70" y="698" type="line"/>
      <point x="580" y="698" type="line"/>
      <point x="580" y="678" type="line"/>
      <point x="373" y="678" type="line"/>
      <point x="373" y="676" type="line"/>
      <point x="459" y="642"/>
      <point x="466" y="529" type="qcurve"/>
      <point x="580" y="529" type="line"/>
      <point x="580" y="509" type="line"/>
      <point x="466" y="509" type="line"/>
      <point x="466" y="502" type="line" smooth="yes"/>
      <point x="466" y="423"/>
      <point x="376" y="322"/>
      <point x="292" y="322" type="qcurve" smooth="yes"/>
      <point x="269" y="322" type="line"/>
      <point x="515" y="0" type="line"/>
    </contour>
  </outline>
</glyph>
<glyph name="onethird" format="2">
  <advance width="832"/>
  <unicode hex="2153"/>
  <outline>
    <contour>
      <point x="647" y="-6" type="qcurve" smooth="yes"/>
      <point x="567" y="-6"/>
      <point x="527" y="50" type="qcurve"/>
      <point x="541" y="61" type="line"/>
      <point x="558" y="38"/>
      <point x="606" y="11"/>
      <point x="647" y="11" type="qcurve" smooth="yes"/>
      <point x="751" y="11"/>
      <point x="752" y="98" type="qcurve"/>
      <point x="752" y="104" type="line" smooth="yes"/>
      <point x="752" y="142"/>
      <point x="707" y="183"/>
      <point x="651" y="183" type="qcurve" smooth="yes"/>
      <point x="598" y="183" type="line"/>
      <point x="598" y="200" type="line"/>
      <point x="644" y="200" type="line" smooth="yes"/>
      <point x="700" y="200"/>
      <point x="745" y="242"/>
      <point x="745" y="279" type="qcurve" smooth="yes"/>
      <point x="745" y="285" type="line" smooth="yes"/>
      <point x="745" y="318"/>
      <point x="698" y="358"/>
      <point x="653" y="358" type="qcurve" smooth="yes"/>
      <point x="614" y="358"/>
      <point x="568" y="334"/>
      <point x="552" y="312" type="qcurve"/>
      <point x="538" y="322" type="line"/>
      <point x="573" y="375"/>
      <point x="653" y="375" type="qcurve" smooth="yes"/>
      <point x="760" y="375"/>
      <point x="765" y="280" type="qcurve"/>
      <point x="765" y="210"/>
      <point x="695" y="194" type="qcurve"/>
      <point x="695" y="191" type="line"/>
      <point x="772" y="177"/>
      <point x="772" y="102" type="qcurve" smooth="yes"/>
      <point x="772" y="53"/>
      <point x="707" y="-6"/>
    </contour>
    <contour>
      <point x="200" y="0" type="line"/>
      <point x="178" y="0" type="line"/>
      <point x="625" y="698" type="line"/>
      <point x="647" y="698" type="line"/>
    </contour>
    <contour>
      <point x="208" y="329" type="line"/>
      <point x="189" y="329" type="line"/>
      <point x="189" y="681" type="line"/>
      <point x="109" y="640" type="line"/>
      <point x="109" y="659" type="line"/>
      <point x="185" y="698" type="line"/>
      <point x="208" y="698" type="line"/>
    </contour>
  </outline>
</glyph>
<glyph name="onefifth" format="2">
  <advance width="820"/>
  <unicode hex="2155"/>
  <outline>
    <contour>
      <point x="647" y="-6" type="qcurve" smooth="yes"/>
      <point x="563" y="-6"/>
      <point x="523" y="50" type="qcurve"/>
      <point x="537" y="61" type="line"/>
      <point x="554" y="38"/>
      <point x="603" y="11"/>
      <point x="646" y="11" type="qcurve" smooth="yes"/>
      <point x="699" y="11"/>
      <point x="752" y="62"/>
      <point x="752" y="102" type="qcurve" smooth="yes"/>
      <point x="752" y="115" type="line" smooth="yes"/>
      <point x="752" y="205"/>
      <point x="653" y="205" type="qcurve" smooth="yes"/>
      <point x="619" y="205"/>
      <point x="575" y="184"/>
      <point x="557" y="167" type="qcurve"/>
      <point x="539" y="169" type="line"/>
      <point x="552" y="369" type="line"/>
      <point x="757" y="369" type="line"/>
      <point x="757" y="352" type="line"/>
      <point x="569" y="352" type="line"/>
      <point x="557" y="185" type="line"/>
      <point x="559" y="185" type="line"/>
      <point x="597" y="222"/>
      <point x="655" y="222" type="qcurve" smooth="yes"/>
      <point x="714" y="222"/>
      <point x="772" y="160"/>
      <point x="772" y="110" type="qcurve" smooth="yes"/>
      <point x="772" y="57"/>
      <point x="707" y="-6"/>
    </contour>
    <contour>
      <point x="200" y="0" type="line"/>
      <point x="178" y="0" type="line"/>
      <point x="625" y="698" type="line"/>
      <point x="647" y="698" type="line"/>
    </contour>
    <contour>
      <point x="208" y="329" type="line"/>
      <point x="189" y="329" type="line"/>
      <point x="189" y="681" type="line"/>
      <point x="109" y="640" type="line"/>
      <point x="109" y="659" type="line"/>
      <point x="185" y="698" type="line"/>
      <point x="208" y="698" type="line"/>
    </contour>
  </outline>
</glyph>
<glyph name="arrowNW" format="2">
  <advance width="746"/>
  <unicode hex="2196"/>
  <outline>
    <contour>
      <point x="628" y="105" type="line"/>
      <point x="229" y="504"/>
      <point x="153" y="581" type="qcurve"/>
      <point x="151" y="580" type="line"/>
      <point x="154" y="507" type="line"/>
      <point x="154" y="350" type="line"/>
      <point x="133" y="350" type="line"/>
      <point x="133" y="614" type="line"/>
      <point x="397" y="614" type="line"/>
      <point x="397" y="593" type="line"/>
      <point x="240" y="593" type="line"/>
      <point x="167" y="596" type="line"/>
      <point x="166" y="594" type="line"/>
      <point x="243" y="518"/>
      <point x="642" y="119" type="qcurve"/>
    </contour>
  </outline>
</glyph>
<glyph name="check" format="2">
  <advance width="912"/>
  <unicode hex="2713"/>
  <outline>
    <contour>
      <point x="385" y="0" type="line"/>
      <point x="134" y="473" type="line"/>
      <point x="152" y="483" type="line"/>
      <point x="397" y="21" type="line"/>
      <point x="400" y="21" type="line"/>
      <point x="758" y="698" type="line"/>
      <point x="778" y="691" type="line"/>
      <point x="412" y="0" type="line"/>
    </contour>
  </outline>
</glyph>
<glyph name="uniF6D7" format="2">
  <unicode hex="F6D7"/>
  <outline>
    <contour>
      <point x="91" y="634" type="qcurve" smooth="yes"/>
      <point x="68" y="634"/>
      <point x="68" y="655" type="qcurve" smooth="yes"/>
      <point x="68" y="662" type="line" smooth="yes"/>
      <point x="68" y="683"/>
      <point x="91" y="683" type="qcurve" smooth="yes"/>
      <point x="114" y="683"/>
      <point x="114" y="662" type="qcurve" smooth="yes"/>
      <point x="114" y="655" type="line" smooth="yes"/>
      <point x="114" y="634"/>
    </contour>
    <contour>
      <point x="-6" y="707" type="line"/>
      <point x="105" y="861" type="line"/>
      <point x="124" y="849" type="line"/>
      <point x="9" y="697" type="line"/>
    </contour>
    <contour>
      <point x="-91" y="634" type="qcurve" smooth="yes"/>
      <point x="-114" y="634"/>
      <point x="-114" y="655" type="qcurve" smooth="yes"/>
      <point x="-114" y="662" type="line" smooth="yes"/>
      <point x="-114" y="683"/>
      <point x="-91" y="683" type="qcurve" smooth="yes"/>
      <point x="-68" y="683"/>
      <point x="-68" y="662" type="qcurve" smooth="yes"/>
      <point x="-68" y="655" type="line" smooth="yes"/>
      <point x="-68" y="634"/>
    </contour>
  </outline>
</glyph>
<glyph name="ffi" format="2">
  <advance width="739"/>
  <unicode hex="FB03"/>
  <outline>
    <contour>
      <point x="123" y="0" type="line"/>
      <point x="123" y="487" type="line"/>
      <point x="30" y="487" type="line"/>
      <point x="30" y="506" type="line"/>
      <point x="123" y="506" type="line"/>
      <point x="123" y="711" type="line"/>
      <point x="124" y="740"/>
      <point x="152" y="740" type="qcurve" smooth="yes"/>
      <point x="260" y="740" type="line"/>
      <point x="260" y="721" type="line"/>
      <point x="144" y="721" type="line"/>
      <point x="144" y="506" type="line"/>
      <point x="351" y="506" type="line"/>
      <point x="351" y="711" type="line"/>
      <point x="352" y="740"/>
      <point x="380" y="740" type="qcurve" smooth="yes"/>
      <point x="488" y="740" type="line"/>
      <point x="488" y="721" type="line"/>
      <point x="372" y="721" type="line"/>
      <point x="372" y="506" type="line"/>
      <point x="633" y="506" type="line"/>
      <point x="633" y="0" type="line"/>
      <point x="612" y="0" type="line"/>
      <point x="612" y="487" type="line"/>
      <point x="372" y="487" type="line"/>
      <point x="372" y="0" type="line"/>
      <point x="351" y="0" type="line"/>
      <point x="351" y="487" type="line"/>
      <point x="144" y="487" type="line"/>
      <point x="144" y="0" type="line"/>
    </contour>
    <contour>
      <point x="623" y="673" type="qcurve" smooth="yes"/>
      <point x="600" y="673"/>
      <point x="600" y="694" type="qcurve" smooth="yes"/>
      <point x="600" y="701" type="line" smooth="yes"/>
      <point x="600" y="722"/>
      <point x="623" y="722" type="qcurve" smooth="yes"/>
      <point x="646" y="722"/>
      <point x="646" y="701" type="qcurve" smooth="yes"/>
      <point x="646" y="694" type="line" smooth="yes"/>
      <point x="646" y="673"/>
    </contour>
  </outline>
</glyph>
<glyph name="ffl" format="2">
  <advance width="764"/>
  <unicode hex="FB04"/>
  <outline>
    <contour>
      <point x="123" y="0" type="line"/>
      <point x="123" y="487" type="line"/>
      <point x="30" y="487" type="line"/>
      <point x="30" y="506" type="line"/>
      <point x="123" y="506" type="line"/>
      <point x="123" y="711" type="line"/>
      <point x="124" y="740"/>
      <point x="152" y="740" type="qcurve" smooth="yes"/>
      <point x="260" y="740" type="line"/>
      <point x="260" y="721" type="line"/>
      <point x="144" y="721" type="line"/>
      <point x="144" y="506" type="line"/>
      <point x="351" y="506" type="line"/>
      <point x="351" y="711" type="line"/>
      <point x="352" y="740"/>
      <point x="380" y="740" type="qcurve" smooth="yes"/>
      <point x="639" y="740" type="line"/>
      <point x="639" y="19" type="line"/>
      <point x="724" y="19" type="line"/>
      <point x="724" y="0" type="line"/>
      <point x="647" y="0" type="line"/>
      <point x="618" y="1"/>
      <point x="618" y="29" type="qcurve" smooth="yes"/>
      <point x="618" y="721" type="line"/>
      <point x="372" y="721" type="line"/>
      <point x="372" y="506" type="line"/>
      <point x="488" y="506" type="line"/>
      <point x="488" y="487" type="line"/>
      <point x="372" y="487" type="line"/>
      <point x="372" y="0" type="line"/>
      <point x="351" y="0" type="line"/>
      <point x="351" y="487" type="line"/>
      <point x="144" y="487" type="line"/>
      <point x="144" y="0" type="line"/>
    </contour>
  </outline>
</glyph>
<glyph name="one.subs" format="2">
  <advance width="343"/>
  <outline>
    <contour>
      <point x="208" y="470" type="line"/>
      <point x="189" y="470" type="line"/>
      <point x="189" y="822" type="line"/>
      <point x="109" y="781" type="line"/>
      <point x="109" y="800" type="line"/>
      <point x="185" y="839" type="line"/>
      <point x="208" y="839" type="line"/>
    </contour>
  </outline>
</glyph>
<glyph name="seven.sups" format="2">
  <advance width="344"/>
  <outline>
    <contour>
      <point x="144" y="-388" type="line"/>
      <point x="124" y="-388" type="line"/>
      <point x="280" y="-36" type="line"/>
      <point x="46" y="-36" type="line"/>
      <point x="46" y="-19" type="line"/>
      <point x="298" y="-19" type="line"/>
      <point x="298" y="-38" type="line"/>
    </contour>
  </outline>
</glyph>
<glyph name="six.subs" format="2">
  <advance width="362"/>
  <outline>
    <contour>
      <point x="184" y="481" type="qcurve" smooth="yes"/>
      <point x="229" y="481"/>
      <point x="287" y="524"/>
      <point x="287" y="572" type="qcurve" smooth="yes"/>
      <point x="287" y="584" type="line" smooth="yes"/>
      <point x="287" y="632"/>
      <point x="229" y="675"/>
      <point x="184" y="675" type="qcurve" smooth="yes"/>
      <point x="139" y="675"/>
      <point x="81" y="632"/>
      <point x="81" y="584" type="qcurve" smooth="yes"/>
      <point x="81" y="572" type="line" smooth="yes"/>
      <point x="81" y="524"/>
      <point x="139" y="481"/>
    </contour>
    <contour>
      <point x="182" y="464" type="qcurve" smooth="yes"/>
      <point x="128" y="464"/>
      <point x="60" y="525"/>
      <point x="60" y="592" type="qcurve" smooth="yes"/>
      <point x="60" y="670"/>
      <point x="111" y="744" type="qcurve"/>
      <point x="159" y="809"/>
      <point x="205" y="839" type="qcurve"/>
      <point x="234" y="839" type="line"/>
      <point x="120" y="770"/>
      <point x="82" y="641" type="qcurve"/>
      <point x="84" y="640" type="line"/>
      <point x="115" y="692"/>
      <point x="186" y="692" type="qcurve"/>
      <point x="308" y="686"/>
      <point x="308" y="578" type="qcurve" smooth="yes"/>
      <point x="308" y="524"/>
      <point x="241" y="464"/>
    </contour>
  </outline>
</glyph>
<glyph name="three.subs" format="2">
  <advance width="347"/>
  <outline>
    <contour>
      <point x="162" y="464" type="qcurve" smooth="yes"/>
      <point x="82" y="464"/>
      <point x="42" y="520" type="qcurve"/>
      <point x="56" y="531" type="line"/>
      <point x="73" y="508"/>
      <point x="120" y="481"/>
      <point x="162" y="481" type="qcurve"/>
      <point x="267" y="484"/>
      <point x="267" y="568" type="qcurve" smooth="yes"/>
      <point x="267" y="574" type="line" smooth="yes"/>
      <point x="267" y="612"/>
      <point x="222" y="653"/>
      <point x="166" y="653" type="qcurve" smooth="yes"/>
      <point x="113" y="653" type="line"/>
      <point x="113" y="670" type="line"/>
      <point x="159" y="670" type="line" smooth="yes"/>
      <point x="215" y="670"/>
      <point x="260" y="712"/>
      <point x="260" y="749" type="qcurve" smooth="yes"/>
      <point x="260" y="755" type="line" smooth="yes"/>
      <point x="260" y="788"/>
      <point x="213" y="828"/>
      <point x="168" y="828" type="qcurve" smooth="yes"/>
      <point x="129" y="828"/>
      <point x="84" y="804"/>
      <point x="67" y="782" type="qcurve"/>
      <point x="53" y="792" type="line"/>
      <point x="88" y="845"/>
      <point x="168" y="845" type="qcurve" smooth="yes"/>
      <point x="222" y="845"/>
      <point x="280" y="794"/>
      <point x="280" y="750" type="qcurve" smooth="yes"/>
      <point x="280" y="681"/>
      <point x="210" y="664" type="qcurve"/>
      <point x="210" y="661" type="line"/>
      <point x="287" y="649"/>
      <point x="287" y="572" type="qcurve"/>
      <point x="282" y="464"/>
    </contour>
  </outline>
</glyph>
<glyph name="three.sups" format="2">
  <advance width="347"/>
  <outline>
    <contour>
      <point x="162" y="-394" type="qcurve" smooth="yes"/>
      <point x="82" y="-394"/>
      <point x="42" y="-338" type="qcurve"/>
      <point x="56" y="-327" type="line"/>
      <point x="73" y="-350"/>
      <point x="120" y="-377"/>
      <point x="162" y="-377" type="qcurve"/>
      <point x="267" y="-374"/>
      <point x="267" y="-290" type="qcurve" smooth="yes"/>
      <point x="267" y="-284" type="line" smooth="yes"/>
      <point x="267" y="-246"/>
      <point x="222" y="-205"/>
      <point x="166" y="-205" type="qcurve" smooth="yes"/>
      <point x="113" y="-205" type="line"/>
      <point x="113" y="-188" type="line"/>
      <point x="159" y="-188" type="line" smooth="yes"/>
      <point x="215" y="-188"/>
      <point x="260" y="-146"/>
      <point x="260" y="-109" type="qcurve" smooth="yes"/>
      <point x="260" y="-103" type="line" smooth="yes"/>
      <point x="260" y="-70"/>
      <point x="213" y="-30"/>
      <point x="168" y="-30" type="qcurve" smooth="yes"/>
      <point x="129" y="-30"/>
      <point x="84" y="-54"/>
      <point x="67" y="-76" type="qcurve"/>
      <point x="53" y="-66" type="line"/>
      <point x="88" y="-13"/>
      <point x="168" y="-13" type="qcurve" smooth="yes"/>
      <point x="222" y="-13"/>
      <point x="280" y="-64"/>
      <point x="280" y="-108" type="qcurve" smooth="yes"/>
      <point x="280" y="-177"/>
      <point x="210" y="-194" type="qcurve"/>
      <point x="210" y="-197" type="line"/>
      <point x="287" y="-209"/>
      <point x="287" y="-286" type="qcurve"/>
      <point x="282" y="-394"/>
    </contour>
  </outline>
</glyph>
<glyph name="two.subs" format="2">
  <advance width="345"/>
  <outline>
    <contour>
      <point x="44" y="470" type="line"/>
      <point x="44" y="490" type="line"/>
      <point x="183" y="605" type="line" smooth="yes"/>
      <point x="267" y="675"/>
      <point x="267" y="733" type="qcurve" smooth="yes"/>
      <point x="267" y="743" type="line" smooth="yes"/>
      <point x="267" y="780"/>
      <point x="220" y="828"/>
      <point x="172" y="828" type="qcurve" smooth="yes"/>
      <point x="85" y="828"/>
      <point x="58" y="750" type="qcurve"/>
      <point x="41" y="755" type="line"/>
      <point x="53" y="793"/>
      <point x="117" y="845"/>
      <point x="172" y="845" type="qcurve" smooth="yes"/>
      <point x="229" y="845"/>
      <point x="287" y="784"/>
      <point x="287" y="740" type="qcurve" smooth="yes"/>
      <point x="287" y="664"/>
      <point x="194" y="593" type="qcurve"/>
      <point x="64" y="487" type="line"/>
      <point x="300" y="487" type="line"/>
      <point x="300" y="470" type="line"/>
    </contour>
  </outline>
</glyph>
<glyph name="zero.sups" format="2">
  <advance width="384"/>
  <outline>
    <contour>
      <point x="192" y="-377" type="qcurve" smooth="yes"/>
      <point x="252" y="-377"/>
      <point x="303" y="-296"/>
      <point x="303" y="-224" type="qcurve" smooth="yes"/>
      <point x="303" y="-183" type="line" smooth="yes"/>
      <point x="303" y="-111"/>
      <point x="252" y="-30"/>
      <point x="192" y="-30" type="qcurve" smooth="yes"/>
      <point x="132" y="-30"/>
      <point x="81" y="-111"/>
      <point x="81" y="-183" type="qcurve" smooth="yes"/>
      <point x="81" y="-224" type="line" smooth="yes"/>
      <point x="81" y="-296"/>
      <point x="132" y="-377"/>
    </contour>
    <contour>
      <point x="192" y="-394" type="qcurve" smooth="yes"/>
      <point x="122" y="-394"/>
      <point x="61" y="-297"/>
      <point x="61" y="-203" type="qcurve" smooth="yes"/>
      <point x="61" y="-110"/>
      <point x="122" y="-13"/>
      <point x="192" y="-13" type="qcurve" smooth="yes"/>
      <point x="262" y="-13"/>
      <point x="323" y="-110"/>
      <point x="323" y="-203" type="qcurve" smooth="yes"/>
      <point x="323" y="-297"/>
      <point x="262" y="-394"/>
    </contour>
  </outline>
</glyph>
